<svg width="50" height="60" viewBox="0 0 50 60" fill="none" xmlns="http://www.w3.org/2000/svg">
<path d="M0 20C0 8.9543 8.95431 0 20 0H40C45.5228 0 50 4.47715 50 10V40C50 51.0457 41.0457 60 30 60H10C4.47715 60 0 55.5228 0 50V20Z" fill="#FFC2F9"/>
<mask id="mask0_9_2656" style="mask-type:alpha" maskUnits="userSpaceOnUse" x="0" y="0" width="50" height="60">
<path d="M0 20C0 8.9543 8.95431 0 20 0H40C45.5228 0 50 4.47715 50 10V40C50 51.0457 41.0457 60 30 60H10C4.47715 60 0 55.5228 0 50V20Z" fill="#C4C4C4"/>
</mask>
<g mask="url(#mask0_9_2656)">
<g clip-path="url(#clip0_9_2656)">
<path d="M7.31684 49.8464C7.81053 45.4328 11.5423 42.0952 15.9834 42.0952H28.5562C32.9973 42.0952 36.729 45.4328 37.2227 49.8464L38.5396 61.619H6L7.31684 49.8464Z" fill="#75FDAB"/>
<mask id="mask1_9_2656" style="mask-type:alpha" maskUnits="userSpaceOnUse" x="6" y="42" width="33" height="20">
<path d="M7.31684 49.8464C7.81053 45.4328 11.5423 42.0952 15.9834 42.0952H28.5562C32.9973 42.0952 36.729 45.4328 37.2227 49.8464L38.5396 61.619H6L7.31684 49.8464Z" fill="#00D355"/>
</mask>
<g mask="url(#mask1_9_2656)">
<path d="M8.09779 49.8464C8.59148 45.4328 12.3232 42.0952 16.7643 42.0952H29.3371C33.7782 42.0952 37.51 45.4328 38.0037 49.8464L39.3205 61.619H6.78094L8.09779 49.8464Z" fill="#29D60C"/>
<path d="M8.87879 49.8464C9.37248 45.4328 13.1042 42.0952 17.5453 42.0952H30.1181C34.5593 42.0952 38.291 45.4328 38.7847 49.8464L40.1015 61.619H7.56195L8.87879 49.8464Z" fill="url(#paint0_linear_9_2656)"/>
</g>
<path fill-rule="evenodd" clip-rule="evenodd" d="M30.4696 53.8095C30.6852 53.8095 30.8601 53.9843 30.8601 54.1999V61.619C30.8601 61.8346 30.6852 62.0094 30.4696 62.0094C30.2539 62.0094 30.0791 61.8346 30.0791 61.619V54.1999C30.0791 53.9843 30.2539 53.8095 30.4696 53.8095Z" fill="url(#paint1_linear_9_2656)"/>
</g>
<path d="M36.1172 18.2889C38.5611 25.3702 53.0679 41.4347 38.3306 45.6032C24.4252 49.5365 17.5568 35.4719 15.1129 28.3906C12.669 21.3092 12.2258 11.264 21.5629 9.40796C24.61 7.6287 33.5088 10.7307 36.1172 18.2889Z" fill="#5236FF"/>
<path d="M34.6155 22.551C36.4806 27.9553 45.7118 41.0043 34.6155 45.116C24.9837 48.685 18.838 36.8358 18.3765 30.3323C16.5114 24.9281 16.199 17.253 23.41 15.8071C25.7667 14.4385 32.6249 16.7829 34.6155 22.551Z" fill="#4021FE"/>
<path d="M31.6288 25.2721C31.6288 33.4095 28.3187 31.5536 21.7671 31.5536C13.4776 35.8365 12.0484 29.7919 12.0484 24.2728C10.6192 18.7051 13.3347 12.2808 21.7671 12.2808C34.916 13.7085 32.9151 22.5596 31.6288 25.2721Z" fill="#5236FF"/>
<path d="M20.1947 34.9798H23.6249L24.528 41.9963C24.7312 43.575 23.5015 44.9731 21.9098 44.9731C20.3181 44.9731 19.0884 43.575 19.2916 41.9963L20.1947 34.9798Z" fill="#FBC6D7"/>
<mask id="mask2_9_2656" style="mask-type:alpha" maskUnits="userSpaceOnUse" x="19" y="34" width="6" height="11">
<path d="M20.1947 34.9798H23.6249L24.528 41.9963C24.7312 43.575 23.5015 44.9731 21.9098 44.9731C20.3181 44.9731 19.0884 43.575 19.2916 41.9963L20.1947 34.9798Z" fill="#FF7CA6"/>
</mask>
<g mask="url(#mask2_9_2656)">
<path d="M20.3374 34.9798H23.7676L24.1963 37.264C23.0267 39.0789 21.4808 39.2627 19.194 39.8337L20.3374 34.9798Z" fill="#FF7CA6"/>
</g>
<path d="M14.0788 26.3216C14.4136 27.3739 14.0141 28.4391 13.1866 28.701C12.3591 28.9628 11.417 28.322 11.0823 27.2698C10.7475 26.2176 11.147 25.1523 11.9745 24.8905C12.802 24.6286 13.7441 25.2694 14.0788 26.3216Z" fill="#FBC6D7"/>
<path d="M13.738 26.4398C13.9561 27.1261 13.6696 27.8292 13.0982 28.0102C12.5267 28.1912 11.8866 27.7816 11.6686 27.0953C11.4505 26.409 11.7369 25.7059 12.3084 25.5249C12.8799 25.3439 13.5199 25.7535 13.738 26.4398Z" fill="#FF7CA6"/>
<path d="M29.9466 26.8927C29.6119 27.9449 30.0113 29.0102 30.8388 29.272C31.6663 29.5338 32.6085 28.8931 32.9432 27.8409C33.2779 26.7886 32.8785 25.7234 32.051 25.4615C31.2235 25.1997 30.2813 25.8404 29.9466 26.8927Z" fill="#FBC6D7"/>
<path d="M30.2874 27.0109C30.0694 27.6972 30.3558 28.4003 30.9273 28.5813C31.4988 28.7623 32.1388 28.3527 32.3569 27.6664C32.575 26.9802 32.2885 26.2771 31.717 26.0961C31.1456 25.915 30.5055 26.3246 30.2874 27.0109Z" fill="#FF7CA6"/>
<path d="M30.4851 27.5562C30.4851 33.0754 26.6458 37.5495 21.9097 37.5495C17.1737 37.5495 13.3344 33.0754 13.3344 27.5562C13.3344 22.0371 17.1737 17.563 21.9097 17.563C26.6458 17.563 30.4851 22.0371 30.4851 27.5562Z" fill="#FBC6D7"/>
<mask id="mask3_9_2656" style="mask-type:alpha" maskUnits="userSpaceOnUse" x="13" y="17" width="18" height="21">
<path d="M30.4853 27.5562C30.4853 33.0754 26.6459 37.5495 21.9099 37.5495C17.1739 37.5495 13.3345 33.0754 13.3345 27.5562C13.3345 22.0371 17.1739 17.563 21.9099 17.563C26.6459 17.563 30.4853 22.0371 30.4853 27.5562Z" fill="#FBC6D7"/>
</mask>
<g mask="url(#mask3_9_2656)">
<path d="M30.4693 31.9428C30.4693 33.2367 29.4204 34.2856 28.1265 34.2856C26.8326 34.2856 25.7836 33.2367 25.7836 31.9428C25.7836 30.6488 26.8326 29.5999 28.1265 29.5999C29.4204 29.5999 30.4693 30.6488 30.4693 31.9428Z" fill="#FF5E5E"/>
<path d="M18.3647 31.9428C18.3647 33.2367 17.3158 34.2856 16.0219 34.2856C14.7279 34.2856 13.679 33.2367 13.679 31.9428C13.679 30.6488 14.7279 29.5999 16.0219 29.5999C17.3158 29.5999 18.3647 30.6488 18.3647 31.9428Z" fill="#FF5E5E"/>
</g>
<path fill-rule="evenodd" clip-rule="evenodd" d="M23.6647 34.1524C23.7383 34.2759 23.6978 34.4357 23.5743 34.5092C23.0051 34.8483 22.5201 35.0583 22.0134 35.0663C21.5023 35.0743 21.0138 34.8766 20.4365 34.5044C20.3157 34.4265 20.2809 34.2654 20.3588 34.1445C20.4367 34.0237 20.5978 33.9889 20.7187 34.0668C21.2601 34.4159 21.644 34.5514 22.0052 34.5457C22.3709 34.54 22.7582 34.3894 23.3079 34.062C23.4314 33.9884 23.5912 34.0289 23.6647 34.1524Z" fill="#FF7FA8"/>
<path d="M18.6253 27.5173C18.6253 28.1643 18.3339 28.6887 17.9745 28.6887C17.615 28.6887 17.3237 28.1643 17.3237 27.5173C17.3237 26.8704 17.615 26.3459 17.9745 26.3459C18.3339 26.3459 18.6253 26.8704 18.6253 27.5173Z" fill="#361AE7"/>
<path d="M26.4349 27.5173C26.4349 28.1643 26.1435 28.6887 25.7841 28.6887C25.4247 28.6887 25.1333 28.1643 25.1333 27.5173C25.1333 26.8704 25.4247 26.3459 25.7841 26.3459C26.1435 26.3459 26.4349 26.8704 26.4349 27.5173Z" fill="#361AE7"/>
<path fill-rule="evenodd" clip-rule="evenodd" d="M21.5537 26.8015C21.6974 26.8015 21.814 26.918 21.814 27.0618V30.6571L23.0059 30.4498C23.1475 30.4251 23.2823 30.52 23.3069 30.6616C23.3316 30.8033 23.2367 30.9381 23.0951 30.9627L21.5983 31.223C21.5225 31.2362 21.4449 31.2152 21.3861 31.1658C21.3273 31.1163 21.2933 31.0434 21.2933 30.9665V27.0618C21.2933 26.918 21.4099 26.8015 21.5537 26.8015Z" fill="#FF7FA8"/>
<path d="M13.4187 21.7335C13.4187 20.94 14.1244 20.3325 14.9111 20.4362C20.2803 21.1446 23.8745 21.1568 29.368 20.4354C30.1546 20.3321 30.8599 20.9395 30.8599 21.7329V23.2743C30.8599 23.9075 30.4025 24.4502 29.7776 24.5521C23.7693 25.5323 20.0828 25.5734 14.4754 24.5673C13.8619 24.4572 13.4187 23.9197 13.4187 23.2963V21.7335Z" fill="white"/>
<mask id="mask4_9_2656" style="mask-type:alpha" maskUnits="userSpaceOnUse" x="13" y="20" width="18" height="6">
<path d="M13.4187 21.7335C13.4187 20.94 14.1244 20.3325 14.9111 20.4362C20.2803 21.1446 23.8745 21.1568 29.368 20.4354C30.1546 20.3321 30.8599 20.9395 30.8599 21.7329V23.2743C30.8599 23.9075 30.4025 24.4502 29.7776 24.5521C23.7693 25.5323 20.0828 25.5734 14.4754 24.5673C13.8619 24.4572 13.4187 23.9197 13.4187 23.2963V21.7335Z" fill="white"/>
</mask>
<g mask="url(#mask4_9_2656)">
<path d="M17.1745 27.617C16.3966 26.7588 17.0799 25.32 18.2356 25.2425C25.5183 24.7542 30.9401 20.7619 33.7748 20.3958C36.3934 20.0577 35.3375 22.9125 34.8358 24.0205C34.709 24.3006 34.4705 24.5116 34.1845 24.6242C28.0016 27.0595 24.321 27.8887 18.1408 28.0336C17.7737 28.0422 17.4212 27.8891 17.1745 27.617Z" fill="#E9E9E9"/>
</g>
<path d="M13.7635 23.559C14.0493 23.4162 15.6215 19.2762 20.4809 17.7058C22.3865 20.3231 26.9981 25.5291 30.1996 25.4149C31.2 23.0355 31.8861 18.0199 26.6265 16.992C20.0521 15.7071 13.7635 16.7065 13.7635 20.1327V23.559Z" fill="#5236FF"/>
</g>
<defs>
<linearGradient id="paint0_linear_9_2656" x1="20.5127" y1="66.0444" x2="25.9794" y2="42.0952" gradientUnits="userSpaceOnUse">
<stop stop-color="#00D355"/>
<stop offset="1" stop-color="#88FF3F"/>
</linearGradient>
<linearGradient id="paint1_linear_9_2656" x1="30.4696" y1="61.619" x2="30.4696" y2="54.1999" gradientUnits="userSpaceOnUse">
<stop stop-color="#77FF9D"/>
<stop offset="1" stop-color="#77FF9D" stop-opacity="0"/>
</linearGradient>
<clipPath id="clip0_9_2656">
<rect width="32.5396" height="19.5238" fill="white" transform="translate(6 42.0952)"/>
</clipPath>
</defs>
</svg>
