<svg width="85" height="100" viewBox="0 0 85 100" fill="none" xmlns="http://www.w3.org/2000/svg">
<path d="M0 15C0 6.71573 6.71573 0 15 0H80C82.7614 0 85 2.23858 85 5V85C85 93.2843 78.2843 100 70 100H5C2.23858 100 0 97.7614 0 95V15Z" fill="#F6D3DC"/>
<mask id="mask0_9_3065" style="mask-type:alpha" maskUnits="userSpaceOnUse" x="0" y="0" width="85" height="100">
<path d="M0 15C0 6.71573 6.71573 0 15 0H80C82.7614 0 85 2.23858 85 5V85C85 93.2843 78.2843 100 70 100H5C2.23858 100 0 97.7614 0 95V15Z" fill="#F6D3DC"/>
</mask>
<g mask="url(#mask0_9_3065)">
<path d="M18.4071 45.2529C18.4071 32.7329 21.1095 11.8662 41.2549 13.0937C63.3657 11.6208 65.0854 27.8231 65.0854 39.8521C70.2446 46.7259 69.0591 57.2724 67.2965 60.7188C71.473 72.5024 76.9887 80.5369 65.0854 82.322C62.939 82.308 43.5206 81.34 41.7463 81.34C39.7766 81.34 20.4428 81.3212 18.4071 81.34C6.36789 79.5549 18.4071 70.2929 16.9331 63.6647C15.1705 60.2183 15.459 51.3902 18.4071 45.2529Z" fill="#3B2144"/>
<path d="M25.5293 50.5218C25.5293 39.8142 29.5228 22.1993 41.3252 25.0133C41.3948 25.0299 41.4729 25.0315 41.5431 25.0175C53.6771 22.5905 57.3383 35.6003 57.3383 45.8887C60.8541 51.7854 60.0462 60.8329 58.8451 63.7894C61.6911 73.8981 65.4498 80.7905 57.3383 82.3219C55.8756 82.3099 42.643 81.4795 41.4338 81.4795C40.0916 81.4795 26.9165 81.4634 25.5293 81.4795C17.3251 79.9481 25.5293 72.0027 24.5248 66.3166C23.3237 63.3601 23.5203 55.7868 25.5293 50.5218Z" fill="#280434"/>
<g clip-path="url(#clip0_9_3065)">
<path d="M15.6578 82.2149C16.5645 74.1092 23.418 67.9796 31.5743 67.9796H54.6647C62.8211 67.9796 69.6746 74.1092 70.5812 82.2149L72.9997 103.836H13.2394L15.6578 82.2149Z" fill="#B9C4FF"/>
<mask id="mask1_9_3065" style="mask-type:alpha" maskUnits="userSpaceOnUse" x="13" y="67" width="60" height="37">
<path d="M15.6578 82.2149C16.5645 74.1092 23.418 67.9796 31.5743 67.9796H54.6647C62.8211 67.9796 69.6746 74.1092 70.5812 82.2149L72.9997 103.836H13.2394L15.6578 82.2149Z" fill="#00D355"/>
</mask>
<g mask="url(#mask1_9_3065)">
<path d="M17.092 82.2149C17.9987 74.1092 24.8522 67.9796 33.0085 67.9796H56.099C64.2553 67.9796 71.1088 74.1092 72.0155 82.2149L74.4339 103.836H14.6736L17.092 82.2149Z" fill="#516DFF"/>
<path d="M18.5263 82.2149C19.433 74.1092 26.2865 67.9796 34.4428 67.9796H57.5333C65.6896 67.9796 72.5431 74.1092 73.4498 82.2149L75.8682 103.836H16.1079L18.5263 82.2149Z" fill="url(#paint0_linear_9_3065)"/>
</g>
<path fill-rule="evenodd" clip-rule="evenodd" d="M26.6257 89.4933C27.0217 89.4933 27.3428 89.8144 27.3428 90.2104V103.836C27.3428 104.232 27.0217 104.553 26.6257 104.553C26.2296 104.553 25.9086 104.232 25.9086 103.836V90.2104C25.9086 89.8144 26.2296 89.4933 26.6257 89.4933Z" fill="url(#paint1_linear_9_3065)"/>
<path fill-rule="evenodd" clip-rule="evenodd" d="M58.1792 89.4933C58.5752 89.4933 58.8963 89.8144 58.8963 90.2104V103.836C58.8963 104.232 58.5752 104.553 58.1792 104.553C57.7831 104.553 57.462 104.232 57.462 103.836V90.2104C57.462 89.8144 57.7831 89.4933 58.1792 89.4933Z" fill="url(#paint2_linear_9_3065)"/>
</g>
<g clip-path="url(#clip1_9_3065)">
<path d="M39.3083 54.9119H45.6079L47.2666 67.798C47.6398 70.6973 45.3814 73.265 42.4581 73.265C39.5349 73.265 37.2765 70.6973 37.6497 67.798L39.3083 54.9119Z" fill="#FBC6D7"/>
<mask id="mask2_9_3065" style="mask-type:alpha" maskUnits="userSpaceOnUse" x="37" y="54" width="11" height="20">
<path d="M39.3083 54.9119H45.6079L47.2666 67.798C47.6398 70.6973 45.3814 73.265 42.4581 73.265C39.5349 73.265 37.2765 70.6973 37.6497 67.798L39.3083 54.9119Z" fill="#FF7CA6"/>
</mask>
<g mask="url(#mask2_9_3065)">
<path d="M39.5708 54.9119H45.8704L46.6579 59.1069C44.5098 62.4401 41.6707 62.7775 37.4709 63.8263L39.5708 54.9119Z" fill="#FF7CA6"/>
</g>
<path d="M28.076 39.0107C28.6907 40.9432 27.9571 42.8996 26.4374 43.3805C24.9177 43.8614 23.1874 42.6846 22.5727 40.7521C21.9579 38.8196 22.6916 36.8632 24.2113 36.3824C25.731 35.9015 27.4613 37.0783 28.076 39.0107Z" fill="#FBC6D7"/>
<path d="M27.4505 39.2278C27.8511 40.4882 27.3249 41.7794 26.2754 42.1118C25.2259 42.4443 24.0504 41.692 23.6499 40.4317C23.2494 39.1713 23.7755 37.88 24.825 37.5476C25.8745 37.2152 27.05 37.9674 27.4505 39.2278Z" fill="#FF7CA6"/>
<path d="M57.2178 40.0595C56.6031 41.992 57.3367 43.9484 58.8564 44.4293C60.3761 44.9101 62.1064 43.7334 62.7211 41.8009C63.3359 39.8684 62.6023 37.912 61.0826 37.4311C59.5629 36.9503 57.8326 38.127 57.2178 40.0595Z" fill="#FBC6D7"/>
<path d="M57.8433 40.2765C57.4428 41.5369 57.9689 42.8282 59.0184 43.1606C60.0679 43.493 61.2434 42.7408 61.6439 41.4804C62.0445 40.22 61.5183 38.9288 60.4688 38.5964C59.4193 38.2639 58.2438 39.0162 57.8433 40.2765Z" fill="#FF7CA6"/>
<path d="M58.2071 41.2782C58.2071 51.4143 51.1561 59.6313 42.4581 59.6313C33.7602 59.6313 26.7091 51.4143 26.7091 41.2782C26.7091 31.1421 33.7602 22.9251 42.4581 22.9251C51.1561 22.9251 58.2071 31.1421 58.2071 41.2782Z" fill="#FBC6D7"/>
<mask id="mask3_9_3065" style="mask-type:alpha" maskUnits="userSpaceOnUse" x="26" y="22" width="33" height="38">
<path d="M58.2074 41.2782C58.2074 51.4143 51.1563 59.6313 42.4584 59.6313C33.7604 59.6313 26.7094 51.4143 26.7094 41.2782C26.7094 31.1421 33.7604 22.9251 42.4584 22.9251C51.1563 22.9251 58.2074 31.1421 58.2074 41.2782Z" fill="#FBC6D7"/>
</mask>
<g mask="url(#mask3_9_3065)">
<path d="M58.1781 49.3342C58.1781 51.7105 56.2517 53.6369 53.8754 53.6369C51.499 53.6369 49.5726 51.7105 49.5726 49.3342C49.5726 46.9578 51.499 45.0314 53.8754 45.0314C56.2517 45.0314 58.1781 46.9578 58.1781 49.3342Z" fill="#FF5E5E"/>
<path d="M35.9474 49.3342C35.9474 51.7105 34.021 53.6369 31.6447 53.6369C29.2683 53.6369 27.3419 51.7105 27.3419 49.3342C27.3419 46.9578 29.2683 45.0314 31.6447 45.0314C34.021 45.0314 35.9474 46.9578 35.9474 49.3342Z" fill="#FF5E5E"/>
</g>
<path fill-rule="evenodd" clip-rule="evenodd" d="M45.6804 53.3922C45.8155 53.6191 45.7412 53.9125 45.5143 54.0476C44.469 54.6703 43.5782 55.0561 42.6476 55.0707C41.7089 55.0855 40.8119 54.7223 39.7517 54.0387C39.5297 53.8956 39.4659 53.5997 39.6089 53.3778C39.752 53.1559 40.0479 53.092 40.2698 53.2351C41.2641 53.8762 41.9692 54.1251 42.6326 54.1147C43.3042 54.1041 44.0155 53.8275 45.025 53.2262C45.2518 53.0911 45.5452 53.1654 45.6804 53.3922Z" fill="#FF7FA8"/>
<path d="M36.4253 41.2068C36.4253 42.395 35.8902 43.3582 35.2301 43.3582C34.57 43.3582 34.0349 42.395 34.0349 41.2068C34.0349 40.0186 34.57 39.0554 35.2301 39.0554C35.8902 39.0554 36.4253 40.0186 36.4253 41.2068Z" fill="#3B2144"/>
<path d="M50.7679 41.2068C50.7679 42.395 50.2327 43.3582 49.5726 43.3582C48.9126 43.3582 48.3774 42.395 48.3774 41.2068C48.3774 40.0186 48.9126 39.0554 49.5726 39.0554C50.2327 39.0554 50.7679 40.0186 50.7679 41.2068Z" fill="#3B2144"/>
<path fill-rule="evenodd" clip-rule="evenodd" d="M41.8038 39.892C42.0678 39.892 42.2819 40.1061 42.2819 40.3701V46.9729L44.4708 46.5923C44.731 46.547 44.9785 46.7212 45.0238 46.9813C45.069 47.2415 44.8948 47.489 44.6347 47.5343L41.8857 48.0124C41.7466 48.0365 41.604 47.9981 41.496 47.9072C41.388 47.8164 41.3257 47.6825 41.3257 47.5413V40.3701C41.3257 40.1061 41.5397 39.892 41.8038 39.892Z" fill="#FF7FA8"/>
<path d="M26.8636 30.5844C26.8636 29.127 28.1597 28.0113 29.6045 28.2019C39.4653 29.5027 46.0662 29.5252 56.1552 28.2003C57.5998 28.0106 58.8952 29.1262 58.8952 30.5832V33.4141C58.8952 34.577 58.0551 35.5736 56.9074 35.7608C45.873 37.561 39.1025 37.6365 28.8044 35.7888C27.6775 35.5866 26.8636 34.5994 26.8636 33.4545V30.5844Z" fill="white"/>
<mask id="mask4_9_3065" style="mask-type:alpha" maskUnits="userSpaceOnUse" x="26" y="28" width="33" height="10">
<path d="M26.8636 30.5844C26.8636 29.127 28.1597 28.0113 29.6045 28.2019C39.4653 29.5027 46.0662 29.5252 56.1552 28.2003C57.5998 28.0106 58.8952 29.1262 58.8952 30.5832V33.4141C58.8952 34.577 58.0551 35.5736 56.9074 35.7608C45.873 37.561 39.1025 37.6365 28.8044 35.7888C27.6775 35.5866 26.8636 34.5994 26.8636 33.4545V30.5844Z" fill="white"/>
</mask>
<g mask="url(#mask4_9_3065)">
<path d="M33.7612 41.3896C32.3324 39.8136 33.5875 37.1711 35.7099 37.0288C49.0849 36.132 59.0422 28.8 64.2483 28.1277C69.0574 27.5067 67.1182 32.7497 66.1969 34.7845C65.9641 35.2989 65.526 35.6864 65.0007 35.8933C53.6455 40.3659 46.8861 41.8887 35.5358 42.1548C34.8615 42.1706 34.2142 41.8893 33.7612 41.3896Z" fill="#E9E9E9"/>
</g>
<path d="M24.9324 38.2724C28.6604 35.272 36.9023 28.3713 40.0459 24.7709C44.6807 29.0713 54.978 38.0923 59.0889 39.7725C61.0032 36.9722 63.1997 30.4715 56.6707 26.8711C48.5094 22.3706 35.2096 15.4698 28.5596 26.8711C23.2397 35.9921 23.9248 38.2724 24.9324 38.2724Z" fill="#3B2144"/>
</g>
</g>
<defs>
<linearGradient id="paint0_linear_9_3065" x1="39.8925" y1="111.963" x2="49.9322" y2="67.9796" gradientUnits="userSpaceOnUse">
<stop stop-color="#4457FF"/>
<stop offset="1" stop-color="#A6BFFF"/>
</linearGradient>
<linearGradient id="paint1_linear_9_3065" x1="26.7452" y1="90.2104" x2="26.7452" y2="103.836" gradientUnits="userSpaceOnUse">
<stop stop-color="#1C23D6" stop-opacity="0"/>
<stop offset="1" stop-color="#1C23D6"/>
</linearGradient>
<linearGradient id="paint2_linear_9_3065" x1="58.2987" y1="90.2104" x2="58.2987" y2="103.836" gradientUnits="userSpaceOnUse">
<stop stop-color="#1C23D6" stop-opacity="0"/>
<stop offset="1" stop-color="#1C23D6"/>
</linearGradient>
<clipPath id="clip0_9_3065">
<rect width="59.7603" height="35.8562" fill="white" transform="translate(13.2394 67.9796)"/>
</clipPath>
<clipPath id="clip1_9_3065">
<rect width="42.3746" height="50.3399" fill="white" transform="translate(21.4596 22.9251)"/>
</clipPath>
</defs>
</svg>
