<svg width="85" height="100" viewBox="0 0 85 100" fill="none" xmlns="http://www.w3.org/2000/svg">
<path d="M0 15C0 6.71573 6.71573 0 15 0H80C82.7614 0 85 2.23858 85 5V85C85 93.2843 78.2843 100 70 100H5C2.23858 100 0 97.7614 0 95V15Z" fill="#FFE7C2"/>
<mask id="mask0_9_3110" style="mask-type:alpha" maskUnits="userSpaceOnUse" x="0" y="0" width="85" height="100">
<path d="M0 15C0 6.71573 6.71573 0 15 0H80C82.7614 0 85 2.23858 85 5V85C85 93.2843 78.2843 100 70 100H5C2.23858 100 0 97.7614 0 95V15Z" fill="#FFE7C2"/>
</mask>
<g mask="url(#mask0_9_3110)">
<g clip-path="url(#clip0_9_3110)">
<path d="M15.2563 79.8407C16.1022 72.2783 22.4962 66.5596 30.1058 66.5596H51.6482C59.2577 66.5596 65.6518 72.2783 66.4977 79.8407L68.754 100.012H13L15.2563 79.8407Z" fill="#75FDAB"/>
<mask id="mask1_9_3110" style="mask-type:alpha" maskUnits="userSpaceOnUse" x="13" y="66" width="56" height="35">
<path d="M15.2563 79.8407C16.1022 72.2783 22.4962 66.5596 30.1058 66.5596H51.6482C59.2577 66.5596 65.6518 72.2783 66.4977 79.8407L68.754 100.012H13L15.2563 79.8407Z" fill="#00D355"/>
</mask>
<g mask="url(#mask1_9_3110)">
<path d="M16.5946 79.8407C17.4405 72.2783 23.8345 66.5596 31.444 66.5596H52.9865C60.596 66.5596 66.9901 72.2783 67.8359 79.8407L70.0923 100.012H14.3383L16.5946 79.8407Z" fill="#29D60C"/>
<path d="M17.9324 79.8407C18.7784 72.2783 25.1724 66.5596 32.7819 66.5596H54.3244C61.9339 66.5596 68.3279 72.2783 69.1738 79.8407L71.4301 100.012H15.6761L17.9324 79.8407Z" fill="url(#paint0_linear_9_3110)"/>
</g>
<path fill-rule="evenodd" clip-rule="evenodd" d="M54.927 86.6311C55.2965 86.6311 55.596 86.9306 55.596 87.3002V100.012C55.596 100.382 55.2965 100.681 54.927 100.681C54.5575 100.681 54.2579 100.382 54.2579 100.012V87.3002C54.2579 86.9306 54.5575 86.6311 54.927 86.6311Z" fill="url(#paint1_linear_9_3110)"/>
</g>
<path d="M64.6038 25.7695C68.7912 37.9028 93.6474 65.428 68.3963 72.5705C44.5705 79.3097 32.802 55.2112 28.6146 43.0779C24.4272 30.9447 23.6677 13.7329 39.6661 10.5527C44.8872 7.50413 60.1345 12.8192 64.6038 25.7695Z" fill="#5236FF"/>
<path d="M62.0306 33.0722C65.2263 42.332 81.0431 64.6904 62.0306 71.7354C45.5272 77.8507 34.9971 57.5481 34.2064 46.4049C31.0107 37.1451 30.4753 23.9944 42.8308 21.5171C46.8689 19.1721 58.6197 23.189 62.0306 33.0722Z" fill="#4021FE"/>
<path d="M56.9134 37.7347C56.9134 51.6775 51.2417 48.4975 40.0162 48.4975C25.8128 55.8358 23.3639 45.479 23.3639 36.0224C20.9151 26.4826 25.5679 15.4752 40.0162 15.4752C62.5458 17.9213 59.1174 33.0871 56.9134 37.7347Z" fill="#5236FF"/>
<path d="M37.323 54.3681H43.2002L44.7477 66.3903C45.0959 69.0952 42.9889 71.4908 40.2616 71.4908C37.5343 71.4908 35.4273 69.0952 35.7755 66.3903L37.323 54.3681Z" fill="#FBC6D7"/>
<mask id="mask2_9_3110" style="mask-type:alpha" maskUnits="userSpaceOnUse" x="35" y="54" width="10" height="18">
<path d="M37.323 54.3681H43.2002L44.7477 66.3903C45.0959 69.0952 42.9889 71.4908 40.2616 71.4908C37.5343 71.4908 35.4273 69.0952 35.7755 66.3903L37.323 54.3681Z" fill="#FF7CA6"/>
</mask>
<g mask="url(#mask2_9_3110)">
<path d="M37.5676 54.3681H43.4449L44.1796 58.2819C42.1755 61.3916 39.5267 61.7064 35.6085 62.6848L37.5676 54.3681Z" fill="#FF7CA6"/>
</g>
<path d="M26.8434 39.5329C27.4169 41.3358 26.7325 43.1611 25.3146 43.6097C23.8968 44.0583 22.2825 42.9605 21.709 41.1576C21.1355 39.3546 21.8199 37.5294 23.2377 37.0808C24.6555 36.6321 26.2698 37.73 26.8434 39.5329Z" fill="#FBC6D7"/>
<path d="M26.2598 39.7354C26.6335 40.9113 26.1426 42.116 25.1634 42.4262C24.1843 42.7363 23.0876 42.0345 22.7139 40.8586C22.3403 39.6827 22.8311 38.4781 23.8103 38.1679C24.7895 37.8578 25.8861 38.5596 26.2598 39.7354Z" fill="#FF7CA6"/>
<path d="M54.0316 40.5114C53.4581 42.3143 54.1425 44.1395 55.5604 44.5882C56.9782 45.0368 58.5925 43.9389 59.166 42.136C59.7395 40.3331 59.0551 38.5078 57.6373 38.0592C56.2195 37.6106 54.6052 38.7085 54.0316 40.5114Z" fill="#FBC6D7"/>
<path d="M54.6152 40.7139C54.2415 41.8898 54.7324 43.0945 55.7116 43.4046C56.6907 43.7148 57.7874 43.013 58.1611 41.8371C58.5347 40.6612 58.0439 39.4565 57.0647 39.1464C56.0855 38.8362 54.9889 39.538 54.6152 40.7139Z" fill="#FF7CA6"/>
<path d="M54.9545 41.6484C54.9545 51.105 48.3761 58.7711 40.2613 58.7711C32.1465 58.7711 25.5681 51.105 25.5681 41.6484C25.5681 32.1918 32.1465 24.5257 40.2613 24.5257C48.3761 24.5257 54.9545 32.1918 54.9545 41.6484Z" fill="#FBC6D7"/>
<mask id="mask3_9_3110" style="mask-type:alpha" maskUnits="userSpaceOnUse" x="25" y="24" width="30" height="35">
<path d="M54.9548 41.6484C54.9548 51.105 48.3764 58.7711 40.2616 58.7711C32.1467 58.7711 25.5684 51.105 25.5684 41.6484C25.5684 32.1918 32.1467 24.5257 40.2616 24.5257C48.3764 24.5257 54.9548 32.1918 54.9548 41.6484Z" fill="#FBC6D7"/>
</mask>
<g mask="url(#mask3_9_3110)">
<path d="M54.9273 49.1643C54.9273 51.3813 53.13 53.1786 50.913 53.1786C48.6959 53.1786 46.8987 51.3813 46.8987 49.1643C46.8987 46.9473 48.6959 45.15 50.913 45.15C53.13 45.15 54.9273 46.9473 54.9273 49.1643Z" fill="#FF5E5E"/>
<path d="M34.1871 49.1643C34.1871 51.3813 32.3899 53.1786 30.1729 53.1786C27.9558 53.1786 26.1586 51.3813 26.1586 49.1643C26.1586 46.9473 27.9558 45.15 30.1729 45.15C32.3899 45.15 34.1871 46.9473 34.1871 49.1643Z" fill="#FF5E5E"/>
</g>
<path fill-rule="evenodd" clip-rule="evenodd" d="M43.2679 52.9503C43.3939 53.1619 43.3246 53.4357 43.1129 53.5618C42.1377 54.1427 41.3066 54.5026 40.4384 54.5163C39.5626 54.53 38.7258 54.1912 37.7366 53.5534C37.5296 53.42 37.47 53.1439 37.6035 52.9369C37.7369 52.7298 38.013 52.6702 38.22 52.8037C39.1477 53.4019 39.8055 53.6341 40.4244 53.6243C41.051 53.6145 41.7146 53.3564 42.6564 52.7954C42.868 52.6693 43.1418 52.7387 43.2679 52.9503Z" fill="#FF7FA8"/>
<path d="M34.6332 41.5818C34.6332 42.6903 34.134 43.5889 33.5182 43.5889C32.9023 43.5889 32.4031 42.6903 32.4031 41.5818C32.4031 40.4733 32.9023 39.5746 33.5182 39.5746C34.134 39.5746 34.6332 40.4733 34.6332 41.5818Z" fill="#361AE7"/>
<path d="M48.0141 41.5818C48.0141 42.6903 47.5149 43.5889 46.899 43.5889C46.2832 43.5889 45.7839 42.6903 45.7839 41.5818C45.7839 40.4733 46.2832 39.5746 46.899 39.5746C47.5149 39.5746 48.0141 40.4733 48.0141 41.5818Z" fill="#361AE7"/>
<path fill-rule="evenodd" clip-rule="evenodd" d="M39.6507 40.3552C39.8971 40.3552 40.0968 40.5549 40.0968 40.8012V46.9614L42.139 46.6062C42.3817 46.564 42.6127 46.7265 42.6549 46.9692C42.6971 47.2119 42.5345 47.4429 42.2918 47.4851L39.7272 47.9311C39.5975 47.9537 39.4644 47.9178 39.3636 47.833C39.2629 47.7483 39.2047 47.6233 39.2047 47.4917V40.8012C39.2047 40.5549 39.4044 40.3552 39.6507 40.3552Z" fill="#FF7FA8"/>
<path d="M25.7122 31.6715C25.7122 30.3118 26.9213 29.2709 28.2693 29.4487C37.469 30.6624 43.6274 30.6833 53.04 29.4472C54.3877 29.2702 55.5963 30.3111 55.5963 31.6704V34.3115C55.5963 35.3964 54.8125 36.3262 53.7418 36.5009C43.4471 38.1804 37.1305 38.2509 27.5228 36.527C26.4715 36.3384 25.7122 35.4173 25.7122 34.3492V31.6715Z" fill="white"/>
<mask id="mask4_9_3110" style="mask-type:alpha" maskUnits="userSpaceOnUse" x="25" y="29" width="31" height="9">
<path d="M25.7122 31.6715C25.7122 30.3118 26.9213 29.2709 28.2693 29.4487C37.469 30.6624 43.6274 30.6833 53.04 29.4472C54.3877 29.2702 55.5963 30.3111 55.5963 31.6704V34.3115C55.5963 35.3964 54.8125 36.3262 53.7418 36.5009C43.4471 38.1804 37.1305 38.2509 27.5228 36.527C26.4715 36.3384 25.7122 35.4173 25.7122 34.3492V31.6715Z" fill="white"/>
</mask>
<g mask="url(#mask4_9_3110)">
<path d="M32.1474 41.7524C30.8145 40.282 31.9854 37.8167 33.9655 37.6839C46.4438 36.8472 55.7336 30.0067 60.5907 29.3795C65.0774 28.8002 63.2682 33.6917 62.4087 35.5901C62.1914 36.07 61.7827 36.4315 61.2926 36.6246C50.6987 40.7973 44.3924 42.218 33.8031 42.4662C33.174 42.481 32.5701 42.2186 32.1474 41.7524Z" fill="#E9E9E9"/>
</g>
<path d="M26.3027 34.7994C26.7925 34.5547 29.4863 27.461 37.8124 24.7703C41.0776 29.2549 48.9792 38.175 54.4647 37.9793C56.1789 33.9025 57.3544 25.3085 48.3425 23.5473C37.0777 21.3458 26.3027 23.0581 26.3027 28.9287V34.7994Z" fill="#5236FF"/>
</g>
<defs>
<linearGradient id="paint0_linear_9_3110" x1="37.8662" y1="107.595" x2="47.2329" y2="66.5596" gradientUnits="userSpaceOnUse">
<stop stop-color="#00D355"/>
<stop offset="1" stop-color="#88FF3F"/>
</linearGradient>
<linearGradient id="paint1_linear_9_3110" x1="54.927" y1="100.012" x2="54.927" y2="87.3002" gradientUnits="userSpaceOnUse">
<stop stop-color="#77FF9D"/>
<stop offset="1" stop-color="#77FF9D" stop-opacity="0"/>
</linearGradient>
<clipPath id="clip0_9_3110">
<rect width="55.754" height="33.4524" fill="white" transform="translate(13 66.5596)"/>
</clipPath>
</defs>
</svg>
