<svg width="215" height="215" viewBox="0 0 215 215" fill="none" xmlns="http://www.w3.org/2000/svg">
<path fill-rule="evenodd" clip-rule="evenodd" d="M101.05 43C92.2632 43 85.14 50.1232 85.14 58.91V112.23C85.14 114.605 83.2149 116.53 80.84 116.53C78.4652 116.53 76.54 114.605 76.54 112.23V58.91C76.54 45.3735 87.5135 34.4 101.05 34.4C114.587 34.4 125.56 45.3735 125.56 58.91V61.0666C125.56 63.4414 123.635 65.3666 121.26 65.3666C118.885 65.3666 116.96 63.4414 116.96 61.0666V58.91C116.96 50.1232 109.837 43 101.05 43Z" fill="url(#paint0_linear_9_3218)"/>
<mask id="mask0_9_3218" style="mask-type:alpha" maskUnits="userSpaceOnUse" x="76" y="34" width="50" height="83">
<path fill-rule="evenodd" clip-rule="evenodd" d="M101.05 43C92.2632 43 85.14 50.1232 85.14 58.91V112.23C85.14 114.605 83.2149 116.53 80.84 116.53C78.4652 116.53 76.54 114.605 76.54 112.23V58.91C76.54 45.3735 87.5135 34.4 101.05 34.4C114.587 34.4 125.56 45.3735 125.56 58.91V61.0666C125.56 63.4414 123.635 65.3666 121.26 65.3666C118.885 65.3666 116.96 63.4414 116.96 61.0666V58.91C116.96 50.1232 109.837 43 101.05 43Z" fill="#4D94FF"/>
</mask>
<g mask="url(#mask0_9_3218)">
<path d="M86.0076 50.3101C86.0076 42.06 94.4903 35.2766 105.352 34.4786C106.536 34.3916 107.5 33.4375 107.5 32.2501V27.9501C107.5 26.7627 106.535 25.7947 105.349 25.851C88.0652 26.6715 74.39 37.3086 74.39 50.3101V103.63C74.39 106.005 76.9907 107.93 80.1988 107.93C83.4069 107.93 86.0076 106.005 86.0076 103.63V50.3101Z" fill="url(#paint1_linear_9_3218)"/>
</g>
<path d="M144.48 127.065C144.48 150.932 125.132 170.28 101.265 170.28C77.3981 170.28 58.05 150.932 58.05 127.065C58.05 103.198 77.3981 83.85 101.265 83.85C125.132 83.85 144.48 103.198 144.48 127.065Z" fill="url(#paint2_linear_9_3218)"/>
<mask id="mask1_9_3218" style="mask-type:alpha" maskUnits="userSpaceOnUse" x="58" y="83" width="87" height="88">
<path d="M144.48 127.065C144.48 150.932 125.132 170.28 101.265 170.28C77.3981 170.28 58.05 150.932 58.05 127.065C58.05 103.198 77.3981 83.85 101.265 83.85C125.132 83.85 144.48 103.198 144.48 127.065Z" fill="url(#paint3_linear_9_3218)"/>
</mask>
<g mask="url(#mask1_9_3218)">
<path d="M146.2 125.775C146.2 149.642 126.852 168.99 102.985 168.99C79.118 168.99 59.77 149.642 59.77 125.775C59.77 101.908 79.118 82.5599 102.985 82.5599C126.852 82.5599 146.2 101.908 146.2 125.775Z" fill="#4383FF"/>
<path d="M149.21 124.485C149.21 148.352 129.862 167.7 105.995 167.7C82.128 167.7 62.78 148.352 62.78 124.485C62.78 100.618 82.128 81.27 105.995 81.27C129.862 81.27 149.21 100.618 149.21 124.485Z" fill="url(#paint4_linear_9_3218)"/>
</g>
<path d="M108.274 128.036C108.274 127.239 108.724 126.52 109.385 126.076C112.657 123.874 114.81 120.135 114.81 115.893C114.81 109.12 109.323 103.63 102.555 103.63C95.7868 103.63 90.3 109.12 90.3 115.893C90.3 119.937 92.257 123.524 95.2751 125.758C95.8839 126.208 96.2914 126.898 96.2914 127.656V148.35C96.2914 149.537 97.254 150.5 98.4414 150.5H106.124C107.311 150.5 108.274 149.537 108.274 148.35V128.036Z" fill="url(#paint5_linear_9_3218)"/>
<g filter="url(#filter0_b_9_3218)">
<path d="M118.25 129.43C118.25 124.68 122.1 120.83 126.85 120.83H169.85C174.6 120.83 178.45 124.68 178.45 129.43V172.43C178.45 177.18 174.6 181.03 169.85 181.03H126.85C122.1 181.03 118.25 177.18 118.25 172.43V129.43Z" fill="#B9CDFF" fill-opacity="0.5"/>
</g>
<path d="M147.579 130.993C147.894 130.353 148.806 130.353 149.121 130.993L154.468 141.828C154.594 142.081 154.836 142.257 155.116 142.298L167.073 144.036C167.778 144.138 168.06 145.005 167.55 145.502L158.897 153.936C158.695 154.134 158.602 154.419 158.65 154.698L160.693 166.606C160.813 167.309 160.076 167.845 159.445 167.513L148.75 161.89C148.499 161.759 148.2 161.759 147.95 161.89L137.255 167.513C136.624 167.845 135.887 167.309 136.007 166.606L138.05 154.698C138.097 154.419 138.005 154.134 137.802 153.936L129.15 145.502C128.64 145.005 128.921 144.138 129.627 144.036L141.584 142.298C141.864 142.257 142.106 142.081 142.231 141.828L147.579 130.993Z" fill="#4D7FFE"/>
<path fill-rule="evenodd" clip-rule="evenodd" d="M149.513 62.8797C149.761 62.4525 150.379 62.4525 150.627 62.8797L151.551 64.4647C151.581 64.5169 151.632 64.5538 151.691 64.5666L153.483 64.9548C153.967 65.0594 154.157 65.6463 153.828 66.015L152.606 67.3827C152.566 67.4278 152.546 67.4876 152.552 67.5477L152.737 69.3726C152.787 69.8644 152.288 70.2271 151.835 70.0278L150.157 69.2881C150.101 69.2638 150.039 69.2638 149.983 69.2881L148.305 70.0278C147.852 70.2271 147.353 69.8644 147.403 69.3726L147.588 67.5477C147.594 67.4876 147.574 67.4278 147.534 67.3827L146.312 66.015C145.983 65.6463 146.173 65.0594 146.656 64.9548L148.449 64.5666C148.508 64.5538 148.559 64.5169 148.589 64.4647L149.513 62.8797ZM150.256 63.0961C150.173 62.9537 149.967 62.9537 149.884 63.0961L148.961 64.6811C148.87 64.8376 148.717 64.9485 148.54 64.9869L146.747 65.3751C146.586 65.4099 146.523 65.6056 146.633 65.7285L147.855 67.0962C147.975 67.2313 148.034 67.4108 148.016 67.591L147.831 69.4159C147.814 69.5798 147.981 69.7007 148.131 69.6343L149.81 68.8946C149.976 68.8216 150.164 68.8216 150.33 68.8946L152.009 69.6343C152.159 69.7007 152.326 69.5798 152.309 69.4159L152.124 67.591C152.106 67.4108 152.165 67.2313 152.285 67.0962L153.507 65.7285C153.617 65.6056 153.554 65.4099 153.392 65.3751L151.6 64.9869C151.423 64.9485 151.27 64.8376 151.179 64.6811L150.256 63.0961Z" fill="#6F6CFF"/>
<path opacity="0.796364" fill-rule="evenodd" clip-rule="evenodd" d="M51.3971 27.9558C51.537 28.43 51.1133 28.8787 50.6319 28.7664L46.6938 27.8477C46.6351 27.8339 46.5732 27.8456 46.5234 27.8797L43.188 30.1661C42.7803 30.4456 42.2226 30.1814 42.1807 29.6888L41.8375 25.6596C41.8324 25.5994 41.8022 25.5442 41.7544 25.5074L38.5492 23.0418C38.1574 22.7404 38.2363 22.1283 38.6918 21.9362L42.4178 20.3648C42.4734 20.3413 42.5166 20.2956 42.5369 20.2387L43.8913 16.4284C44.0569 15.9627 44.6634 15.8486 44.9868 16.2225L47.6328 19.2805C47.6723 19.3262 47.7291 19.3531 47.7895 19.3547L51.8318 19.4655C52.326 19.479 52.6218 20.0206 52.3662 20.4437L50.2755 23.9052C50.2443 23.9568 50.2363 24.0192 50.2533 24.0771L51.3971 27.9558ZM50.7296 28.3477C50.8901 28.3851 51.0313 28.2355 50.9847 28.0775L49.8409 24.1988C49.7897 24.0251 49.8138 23.8379 49.9074 23.6829L51.9982 20.2214C52.0834 20.0804 51.9848 19.8999 51.82 19.8953L47.7777 19.7846C47.5967 19.7796 47.4261 19.6988 47.3076 19.5619L44.6617 16.5038C44.5538 16.3792 44.3517 16.4172 44.2965 16.5725L42.942 20.3827C42.8814 20.5534 42.7518 20.6906 42.5849 20.761L38.8589 22.3325C38.7071 22.3965 38.6808 22.6005 38.8114 22.701L42.0166 25.1666C42.1601 25.277 42.2506 25.4427 42.266 25.6231L42.6091 29.6524C42.6231 29.8165 42.809 29.9046 42.9449 29.8114L46.2803 27.525C46.4297 27.4226 46.6152 27.3878 46.7915 27.4289L50.7296 28.3477Z" fill="#6F6CFF"/>
<path opacity="0.73011" fill-rule="evenodd" clip-rule="evenodd" d="M40.048 165.349C40.5282 165.467 40.7032 166.059 40.3642 166.418L38.3696 168.535C38.3282 168.579 38.3072 168.638 38.3117 168.698L38.5277 171.598C38.5644 172.091 38.0557 172.441 37.6088 172.229L34.9797 170.986C34.9251 170.961 34.8622 170.959 34.8063 170.982L32.1149 172.083C31.6574 172.271 31.1679 171.895 31.2308 171.405L31.6004 168.52C31.6081 168.46 31.5903 168.4 31.5512 168.354L29.6718 166.134C29.3523 165.757 29.5585 165.176 30.0443 165.084L32.9019 164.544C32.9612 164.533 33.0131 164.497 33.0449 164.446L34.5747 161.973C34.8348 161.552 35.4517 161.569 35.689 162.002L37.0855 164.553C37.1145 164.606 37.1644 164.644 37.223 164.659L40.048 165.349ZM40.0513 166.123C40.1643 166.004 40.1059 165.806 39.9459 165.767L37.1209 165.076C36.945 165.033 36.7953 164.918 36.7083 164.76L35.3119 162.209C35.2327 162.064 35.0271 162.059 34.9404 162.199L33.4106 164.672C33.3153 164.826 33.1597 164.933 32.9817 164.967L30.1241 165.506C29.9622 165.537 29.8934 165.731 29.9999 165.857L31.8794 168.076C31.9964 168.214 32.05 168.395 32.0269 168.575L31.6573 171.459C31.6363 171.623 31.7995 171.748 31.952 171.686L34.6434 170.584C34.811 170.515 34.9997 170.52 35.1634 170.598L37.7926 171.841C37.9416 171.911 38.1112 171.795 38.0989 171.63L37.8829 168.73C37.8694 168.55 37.9325 168.372 38.0567 168.24L40.0513 166.123Z" fill="#6F6CFF"/>
<path opacity="0.902331" d="M189.939 113.608C190.157 113.856 190.026 114.246 189.703 114.313L185.744 115.134C185.625 115.158 185.523 115.231 185.461 115.335L183.395 118.811C183.227 119.095 182.816 119.091 182.652 118.805L180.648 115.293C180.588 115.188 180.487 115.113 180.369 115.086L176.425 114.196C176.103 114.123 175.979 113.731 176.201 113.487L178.922 110.495C179.003 110.406 179.043 110.287 179.032 110.167L178.66 106.14C178.63 105.812 178.965 105.573 179.265 105.708L182.951 107.372C183.061 107.421 183.187 107.422 183.298 107.375L187.013 105.777C187.316 105.647 187.646 105.891 187.61 106.219L187.167 110.238C187.154 110.358 187.192 110.478 187.272 110.569L189.939 113.608Z" fill="#6F6CFF"/>
<path opacity="0.370759" d="M22.0419 77.0931C22.1413 76.7789 22.5426 76.6886 22.767 76.93L24.405 78.693C24.4872 78.7815 24.6027 78.8313 24.7234 78.8303L27.1299 78.8111C27.4594 78.8084 27.6693 79.1623 27.509 79.4502L26.3385 81.5529C26.2798 81.6583 26.2681 81.7837 26.3063 81.8982L27.0683 84.1809C27.1726 84.4935 26.901 84.8024 26.5776 84.739L24.2161 84.2755C24.0976 84.2522 23.9749 84.2798 23.8778 84.3516L21.9422 85.7816C21.6772 85.9775 21.2994 85.8146 21.2598 85.4874L20.9709 83.0983C20.9564 82.9785 20.8922 82.8702 20.794 82.8L18.8358 81.4012C18.5676 81.2096 18.6058 80.8 18.9047 80.6612L21.0876 79.6482C21.1971 79.5973 21.2802 79.5028 21.3166 79.3877L22.0419 77.0931Z" fill="#6F6CFF"/>
<path opacity="0.806242" d="M47.2419 122.342C47.0761 122.627 46.6647 122.627 46.4988 122.342L44.4634 118.848C44.4027 118.744 44.3009 118.67 44.1829 118.644L40.2306 117.788C39.9085 117.719 39.7814 117.327 40.0009 117.082L42.6952 114.066C42.7757 113.976 42.8145 113.856 42.8024 113.736L42.3949 109.713C42.3617 109.385 42.6945 109.143 42.9961 109.276L46.6966 110.907C46.8071 110.956 46.933 110.956 47.0434 110.907L50.7439 109.276C51.0454 109.143 51.3783 109.385 51.3451 109.713L50.9379 113.736C50.9257 113.856 50.9646 113.976 51.045 114.066L53.7395 117.081C53.9591 117.327 53.832 117.718 53.5099 117.788L49.5577 118.644C49.4397 118.67 49.3379 118.744 49.2771 118.848L47.2419 122.342Z" fill="#6F6CFF"/>
<path opacity="0.547916" d="M123.67 27.9129C123.343 27.9533 123.093 27.6259 123.22 27.3215L124.768 23.5858C124.814 23.4743 124.811 23.3485 124.76 23.2391L123.048 19.5756C122.908 19.2771 123.143 18.9389 123.471 18.9649L127.503 19.2831C127.623 19.2926 127.742 19.251 127.83 19.1686L130.785 16.4081C131.026 16.1832 131.42 16.3016 131.497 16.6221L132.44 20.5544C132.468 20.6718 132.544 20.772 132.65 20.8304L136.189 22.7878C136.477 22.9473 136.486 23.3586 136.205 23.5307L132.757 25.6429C132.654 25.7059 132.582 25.8094 132.559 25.9279L131.791 29.8981C131.728 30.2217 131.34 30.3574 131.089 30.1433L128.015 27.5164C127.923 27.438 127.803 27.4017 127.683 27.4165L123.67 27.9129Z" fill="#6F6CFF"/>
<path opacity="0.392959" d="M126.334 197.751C126.191 198.048 125.781 198.08 125.593 197.81L123.287 194.488C123.218 194.389 123.11 194.324 122.991 194.308L118.983 193.769C118.656 193.725 118.498 193.345 118.698 193.083L121.144 189.862C121.217 189.766 121.246 189.644 121.224 189.525L120.498 185.547C120.439 185.223 120.751 184.955 121.062 185.064L124.881 186.395C124.995 186.434 125.12 186.424 125.227 186.367L128.786 184.447C129.076 184.291 129.427 184.505 129.42 184.835L129.334 188.878C129.331 188.998 129.379 189.115 129.467 189.198L132.393 191.989C132.631 192.217 132.535 192.617 132.22 192.712L128.348 193.88C128.233 193.915 128.137 193.996 128.085 194.105L126.334 197.751Z" fill="#6F6CFF"/>
<defs>
<filter id="filter0_b_9_3218" x="113.25" y="115.83" width="70.2" height="70.2" filterUnits="userSpaceOnUse" color-interpolation-filters="sRGB">
<feFlood flood-opacity="0" result="BackgroundImageFix"/>
<feGaussianBlur in="BackgroundImageFix" stdDeviation="2.5"/>
<feComposite in2="SourceAlpha" operator="in" result="effect1_backgroundBlur_9_3218"/>
<feBlend mode="normal" in="SourceGraphic" in2="effect1_backgroundBlur_9_3218" result="shape"/>
</filter>
<linearGradient id="paint0_linear_9_3218" x1="118.68" y1="76.97" x2="71.81" y2="65.36" gradientUnits="userSpaceOnUse">
<stop stop-color="#93B0FF"/>
<stop offset="1" stop-color="#5694FF"/>
</linearGradient>
<linearGradient id="paint1_linear_9_3218" x1="77.8753" y1="94.3851" x2="86.509" y2="43.992" gradientUnits="userSpaceOnUse">
<stop stop-color="#70B5FF"/>
<stop offset="1" stop-color="#ADCCFF"/>
</linearGradient>
<linearGradient id="paint2_linear_9_3218" x1="101.265" y1="83.85" x2="108.145" y2="176.085" gradientUnits="userSpaceOnUse">
<stop stop-color="#759CFF"/>
<stop offset="1" stop-color="#70BAFF"/>
</linearGradient>
<linearGradient id="paint3_linear_9_3218" x1="101.265" y1="83.85" x2="101.265" y2="170.28" gradientUnits="userSpaceOnUse">
<stop stop-color="#AAB8FF"/>
<stop offset="1" stop-color="#61A0FF"/>
</linearGradient>
<linearGradient id="paint4_linear_9_3218" x1="105.995" y1="81.27" x2="105.995" y2="167.7" gradientUnits="userSpaceOnUse">
<stop stop-color="#AAB8FF"/>
<stop offset="1" stop-color="#61A0FF"/>
</linearGradient>
<linearGradient id="paint5_linear_9_3218" x1="90.3" y1="130.88" x2="111.003" y2="141.77" gradientUnits="userSpaceOnUse">
<stop stop-color="#0048FF"/>
<stop offset="1" stop-color="#5081FD"/>
</linearGradient>
</defs>
</svg>
