<svg width="30" height="30" viewBox="0 0 30 30" fill="none" xmlns="http://www.w3.org/2000/svg">
<path d="M27.0011 5.99998C24.2645 2.35665 19.9074 0 15 0C13.8087 0 12.6499 0.138874 11.5387 0.401316C11.5002 0.438835 11.4619 0.476631 11.4238 0.514703C9.74559 2.19293 8.6027 4.33113 8.13967 6.6589C7.67665 8.98667 7.91429 11.3995 8.82254 13.5922C9.73079 15.7849 11.2689 17.659 13.2423 18.9776C14.3696 19.7309 15.6101 20.2835 16.9091 20.6189V11.25C16.9091 8.35049 19.2596 5.99998 22.1591 5.99998H27.0011Z" fill="#30D354"/>
<path d="M28.7519 8.99998H22.1591C20.9165 8.99998 19.9091 10.0073 19.9091 11.25V21.75C19.9091 22.9926 18.8962 24.0173 17.6675 23.8316C15.4972 23.5035 13.4158 22.7016 11.5755 21.472C9.10881 19.8238 7.18622 17.4811 6.0509 14.7402C4.91559 11.9993 4.61854 8.98335 5.19732 6.07363C5.42127 4.94775 5.77246 3.85736 6.24041 2.82202C2.46067 5.54557 0 9.98542 0 15C0 23.2843 6.71573 30 15 30C23.2843 30 30 23.2843 30 15C30 12.8667 29.5547 10.8374 28.7519 8.99998Z" fill="#30D354"/>
</svg>
