<svg width="290" height="530" viewBox="0 0 290 530" fill="none" xmlns="http://www.w3.org/2000/svg">
<path d="M41.9951 501.243C51.1658 499.409 61.3845 501.243 126.627 501.243C191.87 501.243 229.339 499.147 247.418 496.264C265.498 493.382 305.848 500.195 294.844 509.889C283.839 519.584 176.149 533.471 157.808 525.611C139.466 517.75 -3.59622 534.519 7.93262 515.392C17.1557 500.09 34.4839 499.583 41.9951 501.243Z" fill="black" fill-opacity="0.13"/>
<g clip-path="url(#clip0_10_2)">
<path d="M97.8935 119.851C96.5737 120.597 95.2243 120.692 94.8668 120.066L90.96 113.175C90.6025 112.549 91.3835 111.438 92.6986 110.69C94.0185 109.944 95.3748 109.847 95.7277 110.471L99.6345 117.362C99.992 117.988 99.2086 119.103 97.8935 119.851Z" fill="#2B242A"/>
<path d="M92.9584 109.427C92.9584 109.427 91.2684 111.41 93.9038 116.057C96.5391 120.703 99.1122 120.271 99.1122 120.271C99.1122 120.271 129.186 101.662 133.18 99.4007C137.175 97.1395 133.439 88.621 128.62 91.3581C123.801 94.0951 92.9584 109.427 92.9584 109.427Z" fill="#BC7BFB"/>
<g style="mix-blend-mode:soft-light">
<path d="M98.673 119.277C103.874 116.062 128.205 101.032 131.767 99.0081L131.842 98.9631C128.07 96.8242 98.2859 118.403 98.673 119.277Z" fill="white"/>
</g>
<g style="mix-blend-mode:multiply">
<path d="M99.024 118.422C98.448 116.473 98.3355 114.449 99.2245 112.562C100.35 110.16 102.319 108.297 104.32 106.608C109.057 102.615 114.074 99.1807 120.192 97.7556C124.697 96.7101 129.653 96.5759 133.726 99.0038C136.809 96.3049 133.193 88.763 128.62 91.358C123.805 94.0857 92.9606 109.423 92.9606 109.423C92.9606 109.423 91.2706 111.406 93.9059 116.052C96.5413 120.698 99.1144 120.266 99.1144 120.266L99.6118 119.956C99.3786 119.46 99.1822 118.947 99.024 118.422Z" fill="#BC7BFB"/>
</g>
<g style="mix-blend-mode:soft-light">
<g style="mix-blend-mode:soft-light">
<path d="M101.429 118.842L92.7112 113.296C92.8836 113.894 93.1065 114.477 93.3775 115.038L100.373 119.49C100.665 119.324 101.029 119.083 101.429 118.842Z" fill="white"/>
</g>
<g style="mix-blend-mode:soft-light">
<path d="M105.789 116.147L94.2249 108.79L93.0566 109.382L104.728 116.805C105.076 116.585 105.429 116.367 105.789 116.147Z" fill="white"/>
</g>
<g style="mix-blend-mode:soft-light">
<path d="M111.582 112.57L100.626 105.605C100.226 105.8 99.8474 105.999 99.4571 106.198L110.525 113.235L111.582 112.57Z" fill="white"/>
</g>
<g style="mix-blend-mode:soft-light">
<path d="M117.383 109.002L106.991 102.397L105.827 102.992L116.302 109.656L117.383 109.002Z" fill="white"/>
</g>
<g style="mix-blend-mode:soft-light">
<path d="M123.194 105.439L113.411 99.2104L112.247 99.8054L122.122 106.074L123.194 105.439Z" fill="white"/>
</g>
<g style="mix-blend-mode:soft-light">
<path d="M129.018 101.883L119.729 96.0029C119.35 96.1903 118.958 96.3824 118.57 96.6002L127.958 102.529L129.018 101.883Z" fill="white"/>
</g>
<g style="mix-blend-mode:soft-light">
<path d="M132.547 96.8686L126.047 92.7369L124.903 93.3411L133.712 98.9383L132.547 96.8686Z" fill="white"/>
</g>
</g>
<path d="M138.503 95.8662C142.955 93.3398 179.162 93.7959 189.019 94.1256C187.096 91.5072 166.588 84.7661 166.588 84.7661C166.588 84.7661 170.551 88.7344 164.55 89.0198C156.322 89.4166 146.742 89.5915 144.83 89.6307C141.791 89.6811 141.495 88.0985 142.801 86.1013C143.593 84.885 148.709 76.6739 153.554 69.6268C155.985 66.0926 158.296 70.211 158.296 70.211C158.296 70.211 166.036 41.5484 161.733 46.0121C156.777 56.3527 139.112 85.6914 134.281 88.4168C129.45 91.1423 134.048 98.3855 138.503 95.8662Z" fill="#352E35"/>
<path d="M184.603 27.6747C204.015 16.6646 226.886 20.329 235.699 35.8653C244.048 50.5888 236.74 70.7065 219.428 82.1145C220.153 83.1204 220.979 84.1 221.599 85.1651C240.942 72.4211 249.076 49.9879 239.764 33.5568C229.94 16.2311 204.42 12.1321 182.761 24.4183C180.209 25.8616 177.774 27.5041 175.48 29.3305C176.217 30.3476 177.01 31.3234 177.854 32.2533C179.976 30.5468 182.233 29.0156 184.603 27.6747Z" fill="#BC7BFB"/>
<path d="M239.085 51.2222L238.221 51.7076L236.244 48.2622L239.031 46.6618C239.011 46.4182 238.984 46.177 238.956 45.9357L235.922 47.6594L233.957 44.214L237.421 42.2464L238.771 44.6173C238.649 43.9032 238.505 43.201 238.332 42.4966L238.026 41.9312L238.181 41.8436C238.121 41.6213 238.058 41.4037 237.999 41.1697L237.707 41.3354L235.739 37.8712L236.543 37.426L236.251 36.8324L235.433 37.3058L233.468 33.8369L234.167 33.4392L233.772 32.9001L233.139 33.26L231.371 30.1977C230.861 29.6898 230.331 29.2007 229.759 28.7259L230.195 29.5249L226.726 31.4901L224.789 28.0117L227.083 26.7118C226.876 26.5747 226.664 26.4353 226.452 26.3077L224.464 27.4371L222.698 24.3232C222.294 24.124 221.869 23.9671 221.448 23.8008L218.131 25.6715L216.164 22.2073L215.178 22.002L211.782 23.9388L210.347 21.4089L209.557 21.3643L211.216 24.2444L207.747 26.2096L205.782 22.7407L208.286 21.3224C207.834 21.3157 207.384 21.3159 206.929 21.3256L205.43 22.1756L204.994 21.4118L204.265 21.4675L204.853 22.5047L201.384 24.47L200.001 22.0359L199.313 22.1641L200.804 24.8038L197.357 26.7619L195.391 23.293L196.024 22.9331C195.044 23.2036 194.061 23.5022 193.091 23.8242L191.023 24.9963L190.839 24.7184L190.208 24.9916L190.44 25.3981L186.973 27.3118L186.575 26.6133C186.374 26.7129 186.179 26.8117 185.991 26.9096L186.396 27.6291L182.936 29.5873L182.541 28.8959L181.981 29.2507L182.355 29.9141L178.89 31.8817L178.692 31.5852C178.512 31.7245 178.335 31.8591 178.16 32.0007L178.288 32.2273L176.959 32.9803C176.146 33.674 175.362 34.3902 174.609 35.1289L176.557 38.5721L173.089 40.5374L171.739 38.1547C171.583 38.329 171.429 38.5104 171.283 38.6893L172.514 40.8618L169.059 42.834L168.664 42.1426C168.527 42.3496 168.385 42.5543 168.248 42.7613L168.477 43.1608L167.714 43.5964C167.472 43.9798 167.24 44.3679 167.013 44.7582L168.807 43.7377L170.772 47.2066L167.284 49.1626L165.906 46.7309C165.788 46.9706 165.674 47.201 165.552 47.4501L166.712 49.494L164.037 51.0094C163.857 51.505 163.687 52.0051 163.521 52.5076L165.304 55.6471L162.363 57.3117C162.318 57.5932 162.282 57.8559 162.236 58.1491L165.628 56.2218L167.598 59.693L164.129 61.6583L162.216 58.2851C162.167 58.6581 162.122 59.0333 162.096 59.3944L163.555 61.9709L161.94 62.8755C161.946 63.1239 161.953 63.3723 161.963 63.623L163.87 62.541L165.835 66.0098L162.48 67.9088C162.689 68.9286 162.955 69.9357 163.278 70.9251L164.083 72.3501L163.843 72.4827L164.116 73.1139L164.431 72.9363L166.396 76.4052L165.962 76.6468C166.078 76.8383 166.196 77.0251 166.321 77.2095L166.726 76.9822L168.43 79.9956C169.018 80.6706 169.641 81.3147 170.295 81.9253L169.597 80.6989L173.066 78.7337L175.026 82.2002L172.382 83.7014C172.57 83.8526 172.763 83.9945 172.961 84.1386L175.379 82.7888L177.344 86.2577L176.872 86.5276L177.592 86.882L177.673 86.8347L177.742 86.9561C178.08 87.1229 178.419 87.2897 178.774 87.4236L178.25 86.5056L181.719 84.5403L183.684 88.0092L182.404 88.7337C182.705 88.8234 183.001 88.9108 183.301 88.9887L184.014 88.5862L184.402 89.2682L185.275 89.4648L184.565 88.2267L187.685 86.458L189.651 89.9269L189.415 90.0619C189.806 90.0971 190.198 90.1323 190.594 90.1582L194.019 88.2119L195.146 90.2045L195.891 90.1627L194.589 87.9086L198.058 85.9434L199.826 89.0642L198.207 89.9782C198.819 89.9231 199.383 89.8331 199.978 89.7406L200.148 89.6435L200.186 89.709L200.882 89.5901L200.725 89.3144L204.194 87.3492L204.952 88.6807L205.623 88.5034L204.785 87.027L208.254 85.0618L209.478 87.2249L210.105 86.9845L208.831 84.7327L212.3 82.7674L213.77 85.3673L214.364 85.0756L212.872 82.4477L216.341 80.4825L217.842 83.1385L218.41 82.793L216.916 80.1581L220.385 78.1928L221.713 80.5358C221.895 80.4035 222.073 80.2688 222.25 80.1342L220.962 77.8637L224.431 75.8984L225.378 77.5335C225.548 77.3778 225.711 77.2245 225.879 77.0736L225.019 75.5575L228.488 73.5923L228.808 74.1295C228.968 73.9575 229.12 73.7808 229.276 73.6065L229.089 73.2748L229.995 72.7633C230.374 72.3018 230.749 71.8379 231.11 71.3671L228.76 72.6978L226.991 69.577L230.422 67.5932L231.909 70.2188C232.053 70.0211 232.195 69.8164 232.334 69.6164L230.999 67.2641L234.468 65.2988L234.721 65.745C234.837 65.5099 234.953 65.2749 235.069 65.0399L235.026 64.9604L235.145 64.8965C235.321 64.5392 235.495 64.1867 235.669 63.8341L234.697 64.3835L232.732 60.9146L236.201 58.9493L237.072 60.4887C237.174 60.2116 237.27 59.9321 237.36 59.6551L236.778 58.6202L237.88 57.9951C237.963 57.697 238.043 57.3919 238.119 57.0962L236.455 58.0292L234.49 54.5603L237.971 52.6184L238.769 54.034C238.83 53.6727 238.88 53.3115 238.927 52.9433L238.55 52.2846L239.022 52.0147C239.046 51.752 239.071 51.4894 239.085 51.2222ZM177.139 38.2219L175.174 34.753L178.643 32.7877L180.608 36.2566L177.139 38.2219ZM181.19 35.9299L179.224 32.461L182.693 30.4957L184.658 33.9646L181.19 35.9299ZM185.24 33.6378L183.275 30.1689L186.744 28.2036L188.709 31.6725L185.24 33.6378ZM189.291 31.3458L187.323 27.8816L190.792 25.9163L192.76 29.3805L189.291 31.3458ZM193.339 29.0584L191.341 25.5967L194.81 23.6315L196.775 27.1004L193.339 29.0584ZM171.365 46.8563L169.362 43.4041L172.831 41.4388L174.799 44.903L171.365 46.8563ZM175.413 44.569L173.413 41.112L176.882 39.1468L178.847 42.6157L175.413 44.569ZM179.464 42.277L177.464 38.82L180.932 36.8547L182.898 40.3236L179.464 42.277ZM183.514 39.9849L181.514 36.5279L184.983 34.5627L186.948 38.0316L183.514 39.9849ZM187.565 37.6929L185.565 34.2359L189.034 32.2706L190.999 35.7395L187.565 37.6929ZM191.616 35.4008L189.613 31.9485L193.082 29.9833L195.049 33.4475L191.616 35.4008ZM195.666 33.1088L193.699 29.6446L197.167 27.6793L199.135 31.1435L195.666 33.1088ZM199.714 30.8214L197.749 27.3525L201.218 25.3873L203.183 28.8562L199.714 30.8214ZM203.765 28.5294L201.8 25.0605L205.269 23.0952L207.234 26.5641L203.765 28.5294ZM165.881 55.3063L163.915 51.8374L167.036 50.0687L169.002 53.5376L165.881 55.3063ZM169.578 53.2085L167.613 49.7396L171.082 47.7743L173.047 51.2432L169.578 53.2085ZM173.629 50.9164L171.661 47.4522L175.13 45.487L177.098 48.9512L173.629 50.9164ZM177.677 48.6291L175.712 45.1602L179.181 43.1949L181.146 46.6638L177.677 48.6291ZM181.728 46.3371L179.763 42.8682L183.231 40.9029L185.197 44.3718L181.728 46.3371ZM185.778 44.045L183.813 40.5761L187.282 38.6109L189.247 42.0797L185.778 44.045ZM189.829 41.753L187.864 38.2841L191.333 36.3188L193.298 39.7877L189.829 41.753ZM193.88 39.4609L191.912 35.9967L195.381 34.0315L197.348 37.4957L193.88 39.4609ZM197.93 37.1689L195.963 33.7047L199.431 31.7394L201.375 35.1686L197.93 37.1689ZM201.978 34.8815L200.013 31.4126L203.482 29.4474L205.447 32.9163L201.978 34.8815ZM206.029 32.5895L204.064 29.1206L207.533 27.1553L209.498 30.6242L206.029 32.5895ZM210.079 30.2974L208.076 26.7866L211.545 24.8213L213.508 28.2949L210.079 30.2974ZM214.13 28.0054L212.165 24.5365L215.634 22.5712L217.599 26.0401L214.13 28.0054ZM168.175 59.3522L166.21 55.8833L169.34 54.1192L171.305 57.5881L168.175 59.3522ZM171.882 57.259L169.917 53.7901L173.391 51.8271L175.356 55.296L171.882 57.259ZM175.933 54.9669L173.965 51.5027L177.439 49.5398L179.406 53.004L175.933 54.9669ZM179.986 52.6702L178.02 49.2013L181.489 47.2478L183.455 50.7167L179.986 52.6702ZM184.036 50.3781L182.071 46.9093L185.54 44.944L187.505 48.4129L184.036 50.3781ZM188.087 48.0861L186.122 44.6172L189.586 42.6496L191.556 46.1208L188.087 48.0861ZM192.137 45.7941L190.172 42.3252L193.636 40.3576L195.606 43.8288L192.137 45.7941ZM196.188 43.502L194.22 40.0378L197.689 38.0726L199.657 41.5368L196.188 43.502ZM200.238 41.21L198.271 37.7458L201.735 35.7782L203.707 39.2447L200.238 41.21ZM204.287 38.9226L202.321 35.4537L205.786 33.4862L207.751 36.955L204.287 38.9226ZM208.337 36.6306L206.372 33.1617L209.836 31.1941L211.801 34.663L208.337 36.6306ZM212.388 34.3385L210.369 30.8371L213.833 28.8696L215.796 32.3432L212.388 34.3385ZM216.438 32.0465L214.473 28.5776L217.937 26.61L219.903 30.0789L216.438 32.0465ZM220.489 29.7544L218.521 26.2903L221.986 24.3227L223.953 27.7869L220.489 29.7544ZM166.489 65.7131L164.524 62.2442L167.993 60.279L169.869 63.7156L166.489 65.7131ZM170.54 63.4211L168.579 59.9545L171.7 58.1858L173.661 61.6523L170.54 63.4211ZM174.242 61.3256L172.188 57.8244L175.652 55.8568L177.617 59.3257L174.242 61.3256ZM178.293 59.0335L176.236 55.537L179.7 53.5694L181.668 57.0336L178.293 59.0335ZM182.343 56.7415L180.287 53.245L183.751 51.2774L185.718 54.7416L182.343 56.7415ZM186.392 54.4541L184.337 50.9529L187.801 48.9854L189.767 52.4542L186.392 54.4541ZM190.442 52.1621L188.388 48.6609L191.852 46.6933L193.822 50.1411L190.442 52.1621ZM194.493 49.87L192.438 46.3688L195.903 44.4013L197.868 47.8702L194.493 49.87ZM198.543 47.578L196.487 44.0815L199.951 42.1139L201.918 45.5781L198.543 47.578ZM202.594 45.2859L200.546 41.7707L204.011 39.8031L205.955 43.2674L202.594 45.2859ZM206.642 42.9986L204.588 39.4974L208.052 37.5298L210.019 40.994L206.642 42.9986ZM210.693 40.7066L208.728 37.2377L212.196 35.2724L214.162 38.7413L210.693 40.7066ZM214.743 38.4145L212.656 34.8854L216.125 32.9201L218.088 36.3937L214.743 38.4145ZM218.794 36.1225L216.829 32.6536L220.298 30.6883L222.263 34.1572L218.794 36.1225ZM222.844 33.8304L220.877 30.3662L224.346 28.401L226.313 31.8652L222.844 33.8304ZM164.667 72.0303L162.702 68.5614L166.171 66.5962L168.136 70.065L164.667 72.0303ZM168.718 69.7383L166.753 66.2694L170.222 64.3041L172.187 67.773L168.718 69.7383ZM172.768 67.4462L170.794 63.9727L173.915 62.204L175.88 65.6729L172.768 67.4462ZM176.471 65.3507L174.506 61.8818L177.97 59.9142L179.935 63.3831L176.471 65.3507ZM180.522 63.0587L178.559 59.5968L182.023 57.6292L183.99 61.0934L180.522 63.0587ZM184.572 60.7666L182.605 57.3024L186.073 55.3372L188.041 58.8014L184.572 60.7666ZM188.62 58.4793L186.655 55.0104L190.124 53.0451L192.089 56.514L188.62 58.4793ZM192.671 56.1872L190.687 52.6856L194.151 50.7181L196.114 54.1917L192.671 56.1872ZM196.721 53.8952L194.756 50.4263L198.225 48.461L200.19 51.9299L196.721 53.8952ZM200.772 51.6031L198.807 48.1342L202.273 46.1737L204.241 49.6379L200.772 51.6031ZM204.823 49.3111L202.815 45.8096L206.284 43.8444L208.247 47.318L204.823 49.3111ZM208.871 47.0238L206.906 43.5549L210.374 41.5896L212.342 45.0538L208.871 47.0238ZM212.921 44.7317L210.956 41.2628L214.425 39.2976L216.39 42.7664L212.921 44.7317ZM216.972 42.4397L214.948 38.936L218.417 36.9707L220.38 40.4443L216.972 42.4397ZM221.023 40.1476L219.057 36.6787L222.526 34.7135L224.491 38.1824L221.023 40.1476ZM225.073 37.8556L223.105 34.3914L226.574 32.4261L228.542 35.8903L225.073 37.8556ZM229.124 35.5635L227.081 32.0623L230.55 30.097L232.513 33.5706L229.124 35.5635ZM166.962 76.0762L164.996 72.6073L168.465 70.642L170.431 74.1109L166.962 76.0762ZM171.012 73.7841L169.047 70.3152L172.516 68.35L174.481 71.8189L171.012 73.7841ZM175.063 71.4921L173.098 68.0232L176.218 66.2545L178.184 69.7234L175.063 71.4921ZM178.761 69.3943L176.795 65.9254L180.264 63.9601L182.23 67.429L178.761 69.3943ZM182.811 67.1022L180.844 63.638L184.313 61.6728L186.28 65.1369L182.811 67.1022ZM186.859 64.8149L184.894 61.346L188.363 59.3807L190.331 62.8449L186.859 64.8149ZM190.91 62.5228L188.945 59.0539L192.414 57.0887L194.379 60.5576L190.91 62.5228ZM194.961 60.2308L192.974 56.7339L196.443 54.7686L198.406 58.2422L194.961 60.2308ZM199.011 57.9387L197.046 54.4698L200.515 52.5046L202.48 55.9735L199.011 57.9387ZM203.062 55.6467L201.096 52.1778L204.563 50.2172L206.531 53.6814L203.062 55.6467ZM207.112 53.3546L205.107 49.8602L208.576 47.8949L210.539 51.3685L207.112 53.3546ZM211.16 51.0673L209.195 47.5984L212.664 45.6331L214.629 49.102L211.16 51.0673ZM215.211 48.7752L213.246 45.3064L216.715 43.3411L218.68 46.81L215.211 48.7752ZM219.262 46.4832L217.24 42.9865L220.709 41.0213L222.672 44.4948L219.262 46.4832ZM223.312 44.1912L221.347 40.7223L224.816 38.757L226.781 42.2259L223.312 44.1912ZM227.363 41.8991L225.395 38.4349L228.866 36.465L230.832 39.9339L227.363 41.8991ZM231.413 39.6071L229.373 36.1128L232.842 34.1476L234.805 37.6212L231.413 39.6071ZM169.265 80.1032L167.3 76.6343L170.769 74.6691L172.734 78.138L169.265 80.1032ZM173.316 77.8112L171.351 74.3423L174.82 72.377L176.785 75.8459L173.316 77.8112ZM177.366 75.5191L175.401 72.0502L178.522 70.2815L180.487 73.7504L177.366 75.5191ZM181.064 73.4213L179.062 69.9573L182.53 67.9921L184.496 71.461L181.064 73.4213ZM185.115 71.1293L183.119 67.6512L186.588 65.6859L188.565 69.1665L185.115 71.1293ZM189.165 68.8372L187.16 65.3779L190.629 63.4127L192.597 66.8769L189.165 68.8372ZM193.214 66.5499L191.211 63.0859L194.68 61.1206L196.645 64.5895L193.214 66.5499ZM197.264 64.2578L195.266 60.7844L198.735 58.8192L200.698 62.2928L197.264 64.2578ZM201.315 61.9658L199.312 58.5018L202.781 56.5365L204.746 60.0054L201.315 61.9658ZM205.365 59.6737L203.363 56.2098L206.831 54.2445L208.797 57.7134L205.365 59.6737ZM209.416 57.3817L207.413 53.9177L210.882 51.9524L212.831 55.4191L209.416 57.3817ZM213.466 55.0897L211.461 51.6304L214.93 49.6651L216.898 53.1293L213.466 55.0897ZM217.515 52.8023L215.512 49.3383L218.967 47.3427L220.932 50.8116L217.515 52.8023ZM221.565 50.5103L219.532 47.0371L223.001 45.0718L224.964 48.5454L221.565 50.5103ZM225.616 48.2182L223.651 44.7493L227.119 42.7841L229.085 46.253L225.616 48.2182ZM229.666 45.9262L227.699 42.462L231.1 40.469L233.065 43.9379L229.666 45.9262ZM233.717 43.6341L231.665 40.1634L235.134 38.1981L237.097 41.6717L233.717 43.6341ZM175.596 81.8735L173.631 78.4046L177.1 76.4394L179.06 79.906L175.596 81.8735ZM179.647 79.5815L177.682 76.1126L180.802 74.3439L182.768 77.8128L179.647 79.5815ZM183.345 77.4837L181.379 74.0148L184.848 72.0495L186.814 75.5184L183.345 77.4837ZM187.395 75.1916L185.425 71.7087L188.894 69.7434L190.862 73.2076L187.395 75.1916ZM191.446 72.8996L189.478 69.4354L192.947 67.4701L194.915 70.9343L191.446 72.8996ZM195.494 70.6122L193.529 67.1433L196.998 65.1781L198.963 68.647L195.494 70.6122ZM199.545 68.3202L197.558 64.835L201.027 62.8697L202.99 66.3433L199.545 68.3202ZM203.595 66.0281L201.63 62.5592L205.099 60.594L207.064 64.0629L203.595 66.0281ZM207.646 63.7361L205.68 60.2672L209.126 58.2669L211.086 61.7335L207.646 63.7361ZM211.696 61.444L209.691 57.9613L213.16 55.9961L215.118 59.4673L211.696 61.444ZM215.747 59.152L213.779 55.6878L217.248 53.7225L219.211 57.1844L215.747 59.152ZM219.795 56.8647L217.83 53.3958L221.259 51.3932L223.219 54.8598L219.795 56.8647ZM223.846 54.5726L221.824 51.0876L225.293 49.1224L227.251 52.5937L223.846 54.5726ZM227.896 52.2806L225.931 48.8117L229.4 46.8464L231.36 50.313L227.896 52.2806ZM231.947 49.9885L229.979 46.5243L233.45 44.5544L235.411 48.0209L231.947 49.9885ZM177.952 85.9495L175.986 82.4806L179.451 80.513L181.416 83.9819L177.952 85.9495ZM182.002 83.6575L180.037 80.1886L183.087 78.3851L185.053 81.854L182.002 83.6575ZM185.7 81.5596L183.735 78.0907L187.204 76.1255L189.169 79.5944L185.7 81.5596ZM189.751 79.2676L187.717 75.7593L191.184 73.7987L193.147 77.2606L189.751 79.2676ZM193.801 76.9755L191.834 73.5114L195.303 71.5461L197.265 75.008L193.801 76.9755ZM197.852 74.6835L195.884 71.2193L199.348 69.2517L201.314 72.7206L197.852 74.6835ZM201.9 72.3962L199.85 68.8856L203.338 66.9296L205.298 70.3961L201.9 72.3962ZM205.951 70.1041L203.985 66.6352L207.45 64.6676L209.415 68.1365L205.951 70.1041ZM210.001 67.8121L208.036 64.3432L211.413 62.3152L213.378 65.7841L210.001 67.8121ZM214.052 65.52L211.983 62.0119L215.447 60.0443L217.41 63.5179L214.052 65.52ZM218.102 63.228L216.135 59.7638L219.599 57.7962L221.566 61.2604L218.102 63.228ZM222.151 60.9406L220.19 57.4741L223.546 55.4415L225.511 58.9104L222.151 60.9406ZM226.201 58.6486L224.116 55.1382L227.58 53.1706L229.543 56.6442L226.201 58.6486ZM230.252 56.3565L228.286 52.8877L231.751 50.9201L233.716 54.389L230.252 56.3565ZM234.302 54.0645L232.335 50.6003L235.806 48.6303L237.771 52.0992L234.302 54.0645ZM226.505 69.9454L228.274 73.0662L224.805 75.0315L223.037 71.9106L226.505 69.9454ZM222.457 72.2327L224.226 75.3536L220.757 77.3188L218.855 74.1613L222.457 72.2327ZM218.313 74.4784L220.081 77.5993L216.613 79.5645L214.844 76.4437L218.313 74.4784ZM214.262 76.7705L216.031 79.8913L212.562 81.8566L210.793 78.7357L214.262 76.7705ZM210.212 79.0625L211.98 82.1834L208.511 84.1486L206.722 81.0349L210.212 79.0625ZM206.166 81.3452L207.934 84.466L204.465 86.4313L202.697 83.3104L206.166 81.3452ZM202.115 83.6372L203.886 86.7533L200.417 88.7186L198.646 85.6025L202.115 83.6372ZM232.185 61.2412L234.151 64.7101L230.682 66.6753L228.695 63.237L232.185 61.2412ZM228.135 63.5332L230.1 67.0021L226.631 68.9674L224.666 65.4985L228.135 63.5332ZM224.084 65.8253L226.052 69.2894L222.583 71.2664L220.615 67.8022L224.084 65.8253ZM220.034 68.1173L221.994 71.619L218.525 73.5843L216.563 70.1107L220.034 68.1173ZM215.985 70.4046L217.951 73.8735L214.482 75.8388L212.516 72.3699L215.985 70.4046ZM211.935 72.6967L213.9 76.1656L210.431 78.1308L208.466 74.662L211.935 72.6967ZM207.884 74.9887L209.849 78.4576L206.385 80.4252L204.415 76.954L207.884 74.9887ZM203.834 77.2808L205.799 80.7497L202.33 82.7149L200.365 79.246L203.834 77.2808ZM199.783 79.5728L201.751 83.037L198.282 85.0023L196.314 81.5381L199.783 79.5728ZM195.735 81.8602L197.752 85.378L194.288 87.3456L192.301 83.8604L195.735 81.8602ZM191.684 84.1522L193.65 87.6211L190.185 89.5887L188.22 86.1198L191.684 84.1522ZM184.193 87.6406L182.228 84.1718L185.344 82.4007L187.309 85.8696L184.193 87.6406ZM187.891 85.5428L185.926 82.0739L189.39 80.1064L191.355 83.5752L187.891 85.5428ZM191.942 83.2508L190.009 79.8098L193.471 77.8469L195.439 81.3111L191.942 83.2508ZM195.992 80.9587L194.034 77.5109L197.498 75.5433L199.466 79.0075L195.992 80.9587ZM200.04 78.6714L198.085 75.2188L201.572 73.2394L203.537 76.7083L200.04 78.6714ZM204.091 76.3793L202.133 72.9315L205.597 70.9639L207.562 74.4328L204.091 76.3793ZM208.141 74.0873L206.172 70.6161L209.64 68.6508L211.606 72.1197L208.141 74.0873ZM212.192 71.7953L210.236 68.3427L213.705 66.3657L215.67 69.8346L212.192 71.7953ZM216.243 69.5032L214.28 66.0648L217.744 64.0972L219.702 67.5685L216.243 69.5032ZM220.293 67.2112L218.335 63.7633L221.804 61.7981L223.772 65.2623L220.293 67.2112ZM224.341 64.9238L222.386 61.4713L225.838 59.492L227.803 62.9609L224.341 64.9238ZM228.392 62.6318L226.427 59.198L229.896 57.2328L231.835 60.6948L228.392 62.6318ZM235.902 58.3698L232.438 60.3374L230.468 56.8662L233.937 54.9009L235.902 58.3698Z" fill="url(#paint0_linear_10_2)"/>
<path d="M223.668 83.7657C222.664 82.977 221.723 82.1111 220.855 81.1758C219.458 82.1664 218.012 83.086 216.523 83.9312C197.085 94.9227 174.238 91.2699 165.427 75.7405C157.37 61.5638 163.807 42.4425 179.712 30.8317C178.852 29.9173 178.096 28.9101 177.459 27.8285C159.598 40.7654 152.346 62.1905 161.332 78.0282C171.154 95.3586 196.662 99.446 218.335 87.1666C220.175 86.1343 221.956 84.9988 223.668 83.7657Z" fill="#352E35"/>
<path d="M183.354 28.4084L180.904 25.5188C178.434 27.0452 176.088 28.7648 173.889 30.6614L176.329 33.5464C178.517 31.633 180.867 29.9138 183.354 28.4084Z" fill="#D1D1D1"/>
<path d="M218.125 82.9446L220.57 85.8319C223.027 84.2841 225.36 82.5467 227.547 80.6356L225.098 77.746C222.93 79.6796 220.597 81.4192 218.125 82.9446Z" fill="#D1D1D1"/>
<g style="mix-blend-mode:soft-light">
<path d="M236.672 35.1003C245.336 50.3821 237.477 71.3091 219.135 82.5427C219.652 82.2835 220.162 82.0087 220.663 81.7183C239.662 70.9778 246.984 50.0023 238.107 34.3116C229.23 18.6209 206.181 15.8739 190.076 23.7057C185.234 26.0749 180.669 28.9751 176.468 32.3527C178.632 30.9363 186.824 25.3978 193.035 23.1191C210.442 16.7 228.908 21.4187 236.672 35.1003Z" fill="white"/>
</g>
<path d="M162.842 77.4054C153.779 61.4181 163.017 45.243 166.55 38.8573C156.686 50.2785 154.347 65.7411 161.431 78.2057C169.188 91.8897 186.665 96.4828 201.619 93.1083C192.879 94.1525 170.961 91.7294 162.842 77.4054Z" fill="#2B242A"/>
<path d="M139.041 96.8146C138.748 96.9536 138.412 96.9716 138.106 96.8645C137.8 96.7575 137.548 96.5341 137.406 96.2429L133.499 89.3518C133.321 89.0802 133.258 88.749 133.324 88.431C133.39 88.1129 133.579 87.834 133.85 87.6554C134.143 87.515 134.479 87.4963 134.786 87.6035C135.092 87.7106 135.344 87.9349 135.485 88.2271L139.389 95.1112C139.567 95.3839 139.63 95.7156 139.565 96.0345C139.5 96.3534 139.311 96.6337 139.041 96.8146Z" fill="#2B242A"/>
<path d="M133.478 88.5961L129.617 90.7855L134.177 98.8266L138.038 96.6372L133.478 88.5961Z" fill="#161013"/>
<path d="M134.492 99.3931C134.199 99.5334 133.862 99.5517 133.554 99.4442C133.247 99.3366 132.995 99.1118 132.853 98.819L128.949 91.9349C128.771 91.6623 128.708 91.3305 128.773 91.0116C128.839 90.6927 129.027 90.4124 129.298 90.2315C129.591 90.0922 129.929 90.0749 130.235 90.1834C130.542 90.2918 130.793 90.5172 130.934 90.8103L134.839 97.6943C135.015 97.9663 135.078 98.2968 135.013 98.6145C134.948 98.9323 134.761 99.2119 134.492 99.3931Z" fill="#2B242A"/>
</g>
<path d="M94.2767 208.043C92.5998 202.803 93.578 162.19 94.2767 142.538L103.832 145.945C103.046 153.805 112.356 178.697 112.356 180.829C117.927 177.275 127.354 174.593 133.318 173.457C137.073 177.562 144.322 186.086 143.274 187.344C141.964 188.916 96.3729 214.594 94.2767 208.043Z" fill="#FF7CA6"/>
<mask id="mask0_10_2" style="mask-type:alpha" maskUnits="userSpaceOnUse" x="93" y="142" width="51" height="68">
<path d="M94.2767 208.043C92.5998 202.803 93.578 162.19 94.2767 142.538L103.832 145.945C103.046 153.805 112.356 178.697 112.356 180.829C117.927 177.275 127.354 174.593 133.318 173.457C137.073 177.562 144.322 186.086 143.274 187.344C141.964 188.916 96.3729 214.594 94.2767 208.043Z" fill="#FF7CA6"/>
</mask>
<g mask="url(#mask0_10_2)">
<path d="M91.1325 211.712C89.4556 206.471 90.4338 165.858 91.1325 146.207L100.687 149.613C99.9013 157.474 109.212 182.365 109.212 184.498C114.783 180.944 124.209 178.261 130.173 177.125C133.929 181.23 141.178 189.754 140.13 191.012C138.82 192.584 93.2287 218.262 91.1325 211.712Z" fill="#FB94B5"/>
<path d="M89.5604 216.952C87.8835 211.711 88.8617 171.099 89.5604 151.447L98.5912 147.779C97.8051 155.639 107.64 187.606 107.64 189.738C113.21 186.184 122.637 183.501 128.601 182.365C132.357 186.47 139.606 194.995 138.558 196.252C137.248 197.824 91.6565 223.502 89.5604 216.952Z" fill="#FFAFC9"/>
<path d="M94.9229 155.639C95.1326 154.172 94.1369 149.613 93.6128 147.517L86.0143 208.305C89.7699 209.441 97.6479 211.816 99.1153 212.236C100.949 212.76 114.119 204.239 112.216 204.375C104.88 204.899 96.7571 208.043 95.971 206.995C95.185 205.947 95.447 204.113 95.447 200.707C95.447 197.971 95.185 184.461 94.9229 182.365C94.6609 180.269 94.9229 175.029 94.9229 173.719C94.9229 172.409 94.6609 157.474 94.9229 155.639Z" fill="#FEF2F7"/>
</g>
<path d="M148.047 433.887C141.941 426.363 154.073 337.267 160.903 293.659C173.881 288.791 187.729 273.037 193.03 265.768C193.122 266.991 194.833 271.579 200.943 280.151C207.053 288.723 210.874 297.321 212.022 300.548C212.972 331.359 196.96 386.19 188.835 409.754C213.975 411.935 242.407 439.208 253.711 452.894L248.017 472.304C244.427 469.871 231.317 462.617 207.596 453.061C177.944 441.115 155.68 443.292 148.047 433.887Z" fill="url(#paint1_linear_10_2)"/>
<mask id="mask1_10_2" style="mask-type:alpha" maskUnits="userSpaceOnUse" x="146" y="265" width="108" height="208">
<path d="M148.047 433.887C141.941 426.363 154.073 337.267 160.903 293.659C173.881 288.791 187.729 273.037 193.03 265.768C193.122 266.991 194.833 271.579 200.943 280.151C207.053 288.723 210.874 297.321 212.022 300.548C212.972 331.359 196.96 386.19 188.835 409.754C213.975 411.935 242.407 439.208 253.711 452.894L248.017 472.304C244.427 469.871 231.317 462.617 207.596 453.061C177.944 441.115 155.68 443.292 148.047 433.887Z" fill="#F89AB8"/>
</mask>
<g mask="url(#mask1_10_2)">
<path d="M141.778 439.15C135.672 431.626 147.804 342.53 154.633 298.922C167.612 294.054 179.567 276.211 184.868 268.942C184.96 270.165 188.563 276.842 194.673 285.414C200.783 293.986 193.575 295.549 194.722 298.777C195.645 328.709 192.58 382.768 184.846 407.551C184.265 408.529 184.103 409.568 183.963 410.313C183.887 410.718 183.978 411.153 184.269 411.444C184.776 411.949 185.596 412.683 186.175 412.787C212.13 416.885 253.276 455.354 264.197 468.577L241.747 477.567C238.157 475.134 225.047 467.88 201.326 458.324C171.674 446.378 149.411 448.555 141.778 439.15Z" fill="#FBC6D7"/>
<mask id="mask2_10_2" style="mask-type:alpha" maskUnits="userSpaceOnUse" x="140" y="268" width="125" height="210">
<path d="M141.778 439.15C135.672 431.626 147.804 342.53 154.633 298.922C167.612 294.054 179.567 276.211 184.868 268.942C184.96 270.165 188.563 276.842 194.673 285.414C200.783 293.986 193.575 295.549 194.722 298.777C195.645 328.709 192.58 382.768 184.846 407.551C184.265 408.529 184.103 409.568 183.963 410.313C183.887 410.718 183.978 411.153 184.269 411.444C184.776 411.949 185.596 412.683 186.175 412.787C212.13 416.885 253.276 455.354 264.197 468.577L241.747 477.567C238.157 475.134 225.047 467.88 201.326 458.324C171.674 446.378 149.411 448.555 141.778 439.15Z" fill="#FBC6D7"/>
</mask>
<g mask="url(#mask2_10_2)">
<path d="M178.178 391.068C183.535 350.96 173.504 314.575 178.468 310.365C200.083 370.377 264.664 467.16 260.253 464.661L250.82 464.695C245.254 447.16 191.203 426.394 181.208 415.949C177.37 411.938 177.238 396.749 178.178 391.068Z" fill="#FEB3CB"/>
</g>
<path d="M162.559 330.86C165.672 322.254 169.256 299.044 167.905 287.869C145.956 304.456 140.619 422.647 140.654 432.342C140.683 440.097 201.6 475.704 232.056 492.537L259.495 472.262C247.408 462.961 200.652 445.487 195.187 441.315C188.356 436.099 159.265 434.37 155.843 429.928C152.421 425.486 155.752 404.775 155.702 391.15C155.653 377.525 158.667 341.617 162.559 330.86Z" fill="#FEF2F7"/>
</g>
<path d="M163.057 306.3L132.662 275.12C94.6697 309.707 88.1192 339.577 80.7827 353.202C73.4461 366.827 75.5423 363.158 69.5158 383.072C63.4894 402.985 39.9077 454.865 40.4317 463.25C40.8509 469.958 51.0871 470.237 56.1528 469.538C100.801 403.3 105.238 380.801 101.482 377.57C131.876 358.285 154.934 321.847 163.057 306.3Z" fill="#FF7CA6"/>
<mask id="mask3_10_2" style="mask-type:alpha" maskUnits="userSpaceOnUse" x="40" y="275" width="124" height="195">
<path d="M163.057 306.3L132.662 275.12C94.6697 309.707 88.1192 339.577 80.7827 353.202C73.4461 366.827 75.5423 363.158 69.5158 383.072C63.4894 402.985 39.9077 454.865 40.4317 463.25C40.8509 469.958 51.0871 470.237 56.1528 469.538C100.801 403.3 105.238 380.801 101.482 377.57C131.876 358.285 154.934 321.847 163.057 306.3Z" fill="#FF7CA6"/>
</mask>
<g mask="url(#mask3_10_2)">
<path d="M157.816 306.3L127.422 275.12C89.4292 309.707 82.8787 339.577 75.5422 353.202C68.2056 366.827 70.3018 363.158 64.2753 383.072C58.2489 402.985 34.6672 454.865 35.1912 463.25C35.6104 469.958 45.8467 470.237 50.9124 469.538C89.9958 411.555 95.8213 391.282 96.7571 380.19C96.8904 378.61 98.0672 377.046 97.8052 375.473C99.1391 374.627 101.22 374.015 102.522 373.115C130.869 353.518 150.05 321.165 157.816 306.3Z" fill="#FEB3CB"/>
<path d="M147.065 291.103L124.278 271.452C86.2849 306.038 79.7344 335.909 72.3979 349.534C65.0613 363.159 67.1575 359.49 61.1311 379.404C55.1046 399.317 31.5229 451.197 32.0469 459.582C32.4662 466.289 43.7419 467.879 48.8076 467.18C65.0527 442.026 89.2708 390.496 90.2066 379.404C90.3398 377.824 91.5167 376.259 91.2547 374.687C92.5885 373.841 98.0761 370.347 99.3773 369.447C127.725 349.85 139.299 305.968 147.065 291.103Z" fill="#FBC6D7"/>
<path d="M106.714 314.161C109.02 311.226 127.064 289.007 135.798 278.264C134.663 276.343 131.501 272.814 127.937 274.072C123.483 275.644 108.286 285.077 85.2284 306.824C62.1707 328.572 32.0384 459.32 30.4663 462.726C29.2086 465.451 36.9295 466.307 40.9471 466.394C48.371 447.267 63.8476 407.545 66.363 401.675C69.5072 394.339 78.9399 365.517 80.25 362.111C81.5601 358.704 103.832 317.829 106.714 314.161Z" fill="#FEF2F7"/>
</g>
<path d="M170.385 350.058C146.698 319.035 122.26 300.449 113.002 295.034C114.26 291.051 125.579 280.273 131.082 275.382C152.253 311.017 181.651 287.435 193.704 271.19C222.631 287.33 214.666 325.079 207.067 341.935C198.595 345.429 181.651 351.944 181.651 350.058V332.764C178.088 337.795 172.655 346.389 170.385 350.058Z" fill="url(#paint2_linear_10_2)"/>
<mask id="mask4_10_2" style="mask-type:alpha" maskUnits="userSpaceOnUse" x="113" y="271" width="102" height="80">
<path d="M170.385 350.058C146.698 319.035 122.26 300.449 113.002 295.034C114.26 291.051 125.579 280.273 131.082 275.382C152.253 311.017 181.651 287.435 193.704 271.19C222.631 287.33 214.666 325.079 207.067 341.935C198.595 345.429 181.651 351.944 181.651 350.058V332.764C178.088 337.795 172.655 346.389 170.385 350.058Z" fill="url(#paint3_linear_10_2)"/>
</mask>
<g mask="url(#mask4_10_2)">
<path d="M111.692 287.697C120.723 294.342 126.446 297.095 141.562 312.589C158.594 326.738 169.716 339.708 173.529 343.507C179.842 349.798 177.826 347.916 178.245 349.534C194.49 345.341 207.539 340.468 215.714 334.599" stroke="white" stroke-opacity="0.5" stroke-width="1.14496"/>
<path d="M187.154 276.701C193.268 276.177 214.404 298.449 197.11 349.543" stroke="white" stroke-opacity="0.49" stroke-width="1.14496"/>
<path d="M179.293 303.68C178.245 308.659 171.782 311.279 168.288 312.327V308.397C171.433 309.864 175.887 307.349 179.293 303.68Z" fill="url(#paint4_linear_10_2)"/>
<path d="M142.873 298.702C149.86 302.021 166.612 306.667 177.721 298.702C175.363 305.34 165.092 314.633 142.873 298.702Z" fill="url(#paint5_linear_10_2)"/>
<path d="M191.87 270.507C195.787 272.688 202.442 283.967 204.971 302.108C206.029 309.699 209.347 316.769 207.329 325.428C205.674 332.53 201.595 343.488 196.848 350.685L226.981 338.37C225.059 317.408 219.225 274.489 211.26 270.507C203.294 266.524 195.014 268.847 191.87 270.507Z" fill="#0017DF" fill-opacity="0.5"/>
<path d="M118.243 293.986C121.649 297.654 138.156 312.851 137.894 315.209L110.644 294.772L113.264 285.863L130.82 272.762C136.06 275.295 145.807 281.147 142.873 284.291C139.938 287.435 135.711 284.029 133.964 281.933C128.723 284.291 127.675 284.291 125.841 285.863C124.007 290.841 118.243 293.462 118.243 293.986Z" fill="url(#paint6_linear_10_2)"/>
</g>
<path d="M184.608 221.668C186.285 240.743 193.168 264.203 196.399 273.548C164.171 318.877 134.825 290.579 131.68 280.361C129.165 272.186 129.41 240.097 129.846 225.075C122.772 221.668 108.361 203.589 119.365 194.68C128.169 187.553 144.532 173.981 153.091 166.382H167.764C185.058 179.221 182.512 197.825 184.608 221.668Z" fill="url(#paint7_linear_10_2)"/>
<mask id="mask5_10_2" style="mask-type:alpha" maskUnits="userSpaceOnUse" x="115" y="166" width="82" height="133">
<path d="M184.608 221.668C186.285 240.743 193.168 264.203 196.399 273.548C164.171 318.877 134.825 290.579 131.68 280.361C129.165 272.186 129.41 240.097 129.846 225.075C122.772 221.668 108.361 203.589 119.365 194.68C128.169 187.553 144.532 173.981 153.091 166.382H167.764C185.058 179.221 182.512 197.825 184.608 221.668Z" fill="url(#paint8_linear_10_2)"/>
</mask>
<g mask="url(#mask5_10_2)">
<path d="M171.957 186.818C171.957 199.117 162.817 205.423 151.193 205.423C139.568 205.423 128.461 195.453 128.461 183.153C128.461 170.854 137.601 164.548 149.225 164.548C160.849 164.548 171.957 174.519 171.957 186.818Z" fill="#6B85FF"/>
<path d="M169.996 186.129C169.996 197.325 161.517 203.065 150.733 203.065C139.949 203.065 128.461 193.203 128.461 182.008C128.461 170.812 136.94 165.072 147.724 165.072C158.508 165.072 169.996 174.934 169.996 186.129Z" fill="#4464FE"/>
<path d="M134.226 241.77C135.691 235.798 126.974 226.515 124.793 224.026L120.601 279.175L126.881 287.173C135.518 284.774 129.075 272.166 134.226 261.233C137.366 254.568 132.394 249.235 134.226 241.77Z" fill="url(#paint9_linear_10_2)"/>
<path d="M139.445 251.014C141.279 259.836 134.466 271.452 156.214 285.077C142.589 285.077 132.946 279.103 139.445 251.014Z" fill="url(#paint10_linear_10_2)"/>
<path d="M141.185 255.014C142.514 257.757 141.28 262.128 149.451 264.808C145.044 265.929 141.427 264.762 141.185 255.014Z" fill="url(#paint11_linear_10_2)"/>
<path d="M175.218 201.159C175.218 193.298 175.06 184.998 169.83 178.173C174.1 179.736 180.196 190.154 175.218 201.159Z" fill="url(#paint12_linear_10_2)"/>
<path d="M128.985 225.075C135.932 224.004 139.466 225.861 150.823 219.048C148.941 221.133 131.606 237.389 128.985 225.075Z" fill="#4262FE"/>
<path d="M218.072 252.999C213.236 262.683 205.456 252.999 196.52 252.999C180.224 232.472 183.153 207.367 180.224 189.329C171.551 158.276 145.268 170.629 133.178 162.734C140.887 156.506 171.183 150.249 180.224 158.67C191.526 169.197 218.072 241.683 218.072 252.999Z" fill="#2D42FF"/>
<path d="M113.788 203.836L124.269 180.516L130.558 183.851L128.723 188.654C127.085 192.229 123.434 197.887 118.767 200.985C116.409 200.985 118.102 210.786 117.457 211.172C116.344 211.838 114.62 203.468 113.788 203.836Z" fill="url(#paint13_linear_10_2)"/>
</g>
<path d="M281.201 460.916L275.688 458.054C267.278 523.328 245.266 522.622 236.324 513.483C258.696 541.176 276.052 486.089 276.312 485.564C282.36 477.158 284.89 466.668 285.131 460.902L281.201 460.916Z" fill="#CAF4F3"/>
<path d="M253.383 448.702C253.186 451.598 252.277 455.838 248.837 461.833C246.78 459.402 243.907 456.202 242.402 455.293C239.788 457.136 236.682 467.628 235.9 468.679C237.582 470.35 240.98 472.853 242.469 473.896C237.053 483.348 235.941 504.227 236.062 513.484C258.151 535.414 273.438 487.758 278.32 461.189C275.574 455.33 263.352 452.16 257.584 451.307L253.383 448.702Z" fill="#F6FEFD"/>
<path d="M239.034 504.649C241.13 506.745 246.108 508.841 252.659 504.649" stroke="#14D1A4" stroke-width="3.43487" stroke-linecap="round" stroke-linejoin="round"/>
<path d="M240.082 497.312C242.178 499.408 248.728 500.981 253.707 497.312" stroke="#14D1A4" stroke-width="3.43487" stroke-linecap="round" stroke-linejoin="round"/>
<path d="M242.178 490.5C243.79 491.861 247.418 493.382 252.659 490.5" stroke="#14D1A4" stroke-width="3.43487" stroke-linecap="round" stroke-linejoin="round"/>
<path d="M236.316 511.387C242.449 516.605 256.991 519.068 266.099 487.173" stroke="#CEF4F4" stroke-width="2.28992" stroke-linecap="round" stroke-linejoin="round"/>
<path d="M262.3 472.531C254.224 474.206 250.443 474.711 245.276 474.689C245.282 476.366 246.161 477.655 246.599 478.09C252.683 479.535 259.601 474.986 262.3 472.531Z" stroke="#14D1A4" stroke-width="1.14496" stroke-linecap="round"/>
<path d="M245.282 476.261C248.435 478.608 254.535 484.402 253.712 488.807C251.611 487.417 246.983 482.962 245.282 476.261Z" stroke="#14D1A4" stroke-width="1.14496"/>
<path d="M227.749 482.411C235.146 478.947 236.796 477.933 243.704 474.764C244.083 476.578 243.638 476.557 243.559 477.17C238.763 485.001 231.386 482.695 227.749 482.411Z" stroke="#14D1A4" stroke-width="1.14496" stroke-linecap="round"/>
<path d="M244.017 475.829C241.751 479.041 237.758 486.446 239.911 490.376C241.476 488.402 244.486 482.727 244.017 475.829Z" stroke="#14D1A4" stroke-width="1.14496"/>
<circle cx="244.754" cy="475.215" r="0.737609" transform="rotate(-0.207545 244.754 475.215)" fill="#14D1A4" stroke="#14D1A4" stroke-width="1.14496"/>
<path d="M18.9669 519.838C0.28977 523.95 1.05831 510.658 3.77722 503.498C7.95882 524.564 39.5741 511.161 54.8591 501.826C54.9086 502.737 54.9707 504.71 54.8229 505.322C54.6383 506.086 42.3134 514.698 18.9669 519.838Z" fill="#C5F4F2"/>
<path d="M52.8155 492.437C55.5578 485.552 56.7928 474.076 56.6684 469.014C54.4339 469.337 43.9026 466.112 39.3154 464.644C37.9612 470.247 32.2582 480.46 29.6752 483.34C14.5738 489.61 6.11771 499.391 3.77735 503.498C1.31914 530.399 52.741 507.245 54.5514 503.1C55.9998 499.784 53.9976 494.609 52.8155 492.437Z" fill="#F1FEFC"/>
<path d="M13.173 493.644C14.6578 493.906 18.361 495.478 21.2956 499.671" stroke="#14D1A4" stroke-width="3.43487" stroke-linecap="round" stroke-linejoin="round"/>
<path d="M19.9855 488.404C21.4703 488.666 25.1735 490.238 28.1081 494.43" stroke="#14D1A4" stroke-width="3.43487" stroke-linecap="round" stroke-linejoin="round"/>
<path d="M27.846 483.688C29.3308 483.95 31.1999 484.212 34.1345 488.404" stroke="#14D1A4" stroke-width="3.43487" stroke-linecap="round" stroke-linejoin="round"/>
<path d="M41.4698 455.729L39.3154 464.643C43.3325 471.221 51.4044 471.878 55.2544 471.191C55.6416 468.697 57.4902 464.543 58.366 462.778C54.7139 457.367 45.5801 455.824 41.4698 455.729Z" fill="#F7FFFD"/>
<path d="M5.93774 503.481C6.67413 508.241 12.1014 516.346 27.9193 510.68" stroke="#AAFEE7" stroke-width="3.43487"/>
<path d="M47.0169 498.583C38.0221 502.339 32.7415 509.689 30.0969 512.824C32.5351 512.551 38.8016 509.896 41.6301 508.603L47.0169 498.583Z" fill="#AAFEE7" stroke="#DAFFF5" stroke-width="1.14496"/>
<path d="M39.7599 466.312C43.3653 467.073 50.9388 469.366 52.3892 472.455C54.2022 476.316 41.6978 472.408 39.7599 466.312Z" fill="white" stroke="#14D1A4" stroke-width="1.14496"/>
<path d="M39.6405 466.638C41.2506 470.334 44.2172 478.391 43.2027 481.044C40.8891 479.135 36.9376 473.581 39.6405 466.638Z" fill="white" stroke="#14D1A4" stroke-width="1.14496"/>
<path d="M38.9017 466.043C35.5046 464.615 27.9728 462.188 25.0217 463.901C21.3327 466.042 33.8371 469.951 38.9017 466.043Z" stroke="#14D1A4" stroke-width="1.14496"/>
<path d="M38.8141 466.379C35.3853 468.501 28.3586 473.434 27.6816 476.193C30.6707 475.941 37.082 473.626 38.8141 466.379Z" stroke="#14D1A4" stroke-width="1.14496"/>
<path d="M39.9325 467.005C39.7674 467.465 39.5095 467.814 39.255 468.014C38.9931 468.221 38.8112 468.221 38.7235 468.19C38.6359 468.159 38.4959 468.042 38.4251 467.716C38.3562 467.4 38.3789 466.967 38.544 466.507C38.7091 466.047 38.967 465.698 39.2215 465.497C39.4834 465.291 39.6653 465.29 39.753 465.322C39.8406 465.353 39.9806 465.469 40.0514 465.795C40.1203 466.112 40.0976 466.545 39.9325 467.005Z" fill="#14D1A4" stroke="#14D1A4" stroke-width="1.14496"/>
<path d="M153.99 138.976C166.124 153.454 159.046 168.189 153.99 171.017C139.627 191.15 129.536 171.494 126.131 161.032C124.274 151.7 127.246 146.385 132.941 140.955C138.637 135.526 148.109 133.886 153.99 138.976Z" fill="#FF7CA6"/>
<mask id="mask6_10_2" style="mask-type:alpha" maskUnits="userSpaceOnUse" x="125" y="135" width="37" height="45">
<path d="M154.513 138.809C166.647 153.352 159.569 168.153 154.513 170.993C140.15 191.216 129.769 171.389 126.364 160.88C124.507 151.507 127.768 146.251 133.464 140.798C139.159 135.344 148.631 133.697 154.513 138.809Z" fill="#FF7CA6"/>
</mask>
<g mask="url(#mask6_10_2)">
<path d="M151.78 140.442C164.881 153.805 159.123 166.283 154.096 169.106C139.813 189.204 127.665 168.908 124.279 158.463C122.432 149.148 123.564 157.302 131.836 154.278C148.898 148.041 150.994 138.87 151.78 140.442Z" fill="#FEB3CB"/>
<path d="M151.78 142.276C165.667 161.142 156.574 168.533 151.518 171.361C137.155 191.493 125.839 166.626 122.434 156.163C125.578 156.687 128.195 161.263 136.583 156.949C145.753 152.233 145.753 153.543 151.78 142.276Z" fill="#FBC6D7"/>
<path d="M150.794 150.376C150.116 148.132 150.347 143.653 152.03 144.579C153.006 144.579 154.167 149.558 154.167 149.558C155.968 154.417 157.131 163.303 155.188 164.81C152.235 161.363 150.67 159.363 143.546 159.046C140.443 154.853 152.03 154.467 150.794 150.376Z" fill="#FEF2F7" fill-opacity="0.3"/>
</g>
<path d="M134.226 113.897C133.388 114.945 130.034 116.08 128.462 116.517C133.178 122.805 144.235 136.116 150.733 139.05C157.231 141.985 159.03 152.501 159.118 157.392C159.537 158.23 159.817 164.03 159.904 166.825C162.629 166.615 163.428 162.37 163.486 160.274C164.035 163.517 163.651 167.978 163.31 170.231C167.083 170.44 172.2 165.427 174.286 162.894C174.784 168.554 174.072 171.638 173.529 172.589C175.625 171.541 180.865 168.135 185.058 162.894C190.298 156.344 183.748 149.793 181.389 148.745C179.031 147.697 178.507 125.688 177.721 120.185C177.092 115.783 170.821 110.141 167.764 107.87C142.873 96.3413 135.274 112.587 134.226 113.897Z" fill="url(#paint14_linear_10_2)"/>
<path d="M162.53 147.792C161.063 146.324 157.377 149.713 155.98 151.984C155.114 153.294 154.67 157.486 159.91 155.128C165.15 152.77 164.364 149.626 162.53 147.792Z" fill="#FBC6D7" stroke="url(#paint15_linear_10_2)" stroke-width="1.14496"/>
<path fill-rule="evenodd" clip-rule="evenodd" d="M159.677 150.075C158.792 150.851 157.983 151.991 157.511 152.807C157.438 152.932 157.278 152.975 157.153 152.902C157.027 152.83 156.985 152.669 157.057 152.544C157.545 151.701 158.387 150.508 159.332 149.681C159.803 149.268 160.318 148.931 160.842 148.785C161.378 148.636 161.925 148.689 162.419 149.06C162.535 149.146 162.559 149.311 162.472 149.426C162.385 149.542 162.221 149.566 162.105 149.479C161.761 149.221 161.387 149.177 160.982 149.29C160.566 149.406 160.121 149.687 159.677 150.075ZM161.31 149.852C161.422 149.761 161.587 149.777 161.679 149.889C161.887 150.144 162.094 150.461 162.225 150.791C162.354 151.117 162.424 151.491 162.307 151.836C162.185 152.198 161.879 152.464 161.396 152.608C160.922 152.749 160.256 152.78 159.349 152.674C159.206 152.657 159.103 152.526 159.12 152.383C159.137 152.239 159.267 152.136 159.411 152.153C160.286 152.256 160.871 152.217 161.247 152.106C161.614 151.997 161.757 151.827 161.811 151.668C161.871 151.491 161.846 151.257 161.738 150.985C161.632 150.717 161.458 150.447 161.273 150.221C161.182 150.109 161.198 149.944 161.31 149.852Z" fill="#FC719A"/>
<path d="M134.488 149.613C118.557 159.674 107.5 146.207 103.832 137.822C112.74 128.913 111.175 130.301 118.767 126.031C122.959 123.673 125.055 124.459 126.627 115.288C129.981 115.917 146.541 118.171 152.305 129.961L154.139 130.223C176.149 133.997 178.944 123.848 177.459 118.433C187.73 135.621 164.707 137.56 152.305 136.25C151.257 138.608 150.419 139.551 134.488 149.613Z" fill="url(#paint16_linear_10_2)"/>
<mask id="mask7_10_2" style="mask-type:alpha" maskUnits="userSpaceOnUse" x="103" y="115" width="78" height="39">
<path d="M134.488 149.613C118.557 159.674 107.5 146.207 103.832 137.822C112.74 128.913 111.175 130.301 118.767 126.031C122.959 123.673 125.055 124.459 126.627 115.288C129.981 115.917 146.541 118.171 152.305 129.961L154.139 130.223C176.149 133.997 178.944 123.848 177.459 118.433C187.73 135.621 164.707 137.56 152.305 136.25C151.257 138.608 150.419 139.551 134.488 149.613Z" fill="url(#paint17_linear_10_2)"/>
</mask>
<g mask="url(#mask7_10_2)">
<path d="M118.243 159.046L144.969 146.207C139.99 141.49 129.771 146.197 122.959 139.646C116.146 133.096 123.483 128.38 116.671 126.284L95.447 136.512L118.243 159.046Z" fill="url(#paint18_linear_10_2)" fill-opacity="0.3"/>
<path d="M113.717 131.145C105.858 134.307 106.731 136.04 104.094 139.156L102.26 136.536L110.906 126.841L125.055 111.882C130.558 115.026 125.182 123.108 123.745 124.197C121.236 126.098 119.728 126.118 117.756 128.192C116.594 129.413 115.281 130.516 113.717 131.145Z" fill="#C1DBF7"/>
</g>
<path d="M126.365 124.983C126.627 128.302 133.44 133.973 149.685 136.332" stroke="#BAD4F6" stroke-width="1.14496" stroke-linecap="round" stroke-linejoin="round"/>
<path d="M138.615 124.335C134.47 123.339 132.81 122.435 130.755 120.086C130.009 122.138 131.55 126.304 132.556 126.375C132.768 126.39 136.664 124.228 138.615 124.335Z" fill="#B8D2F6"/>
<path d="M133.44 189.964C123.728 179.645 99.8094 156.21 88.9682 146.895C88.2539 146.282 87.8134 145.409 88.0447 144.497C89.6464 138.177 100.646 119.545 114.05 106.38C116.408 100.615 118.243 100.877 120.863 93.5408C122.959 87.6716 128.723 86.903 131.868 88.0384C132.916 88.4169 132.145 90.0266 130.295 90.3966C127.675 90.9207 125.841 93.5409 125.841 95.113C125.841 96.1933 124.793 102.974 132.392 99.8293C134.488 97.2091 135.798 101.663 127.413 107.69C120.863 110.572 102.259 138.315 104.356 139.656C109.873 141.294 117.797 154.049 135.536 159.046C154.139 164.286 171.432 175.291 165.144 189.964C158.856 204.637 146.017 203.327 133.44 189.964Z" fill="#FF7CA6"/>
<mask id="mask8_10_2" style="mask-type:alpha" maskUnits="userSpaceOnUse" x="87" y="87" width="80" height="114">
<path d="M133.44 189.964C123.728 179.645 99.8094 156.21 88.9682 146.895C88.2539 146.282 87.8134 145.409 88.0447 144.497C89.6464 138.177 100.646 119.545 114.05 106.38C116.408 100.615 118.243 100.877 120.863 93.5408C122.959 87.6716 128.723 86.903 131.868 88.0384C132.916 88.4169 132.145 90.0266 130.295 90.3966C127.675 90.9207 125.841 93.5409 125.841 95.113C125.841 96.1933 124.793 102.974 132.392 99.8293C134.488 97.2091 135.798 101.663 127.413 107.69C120.863 110.572 102.259 138.315 104.356 139.656C109.873 141.294 117.797 154.049 135.536 159.046C154.139 164.286 171.432 175.291 165.144 189.964C158.856 204.637 146.017 203.327 133.44 189.964Z" fill="#FF7CA6"/>
</mask>
<g mask="url(#mask8_10_2)">
<path d="M130.038 191.981C120.326 181.662 96.4075 158.227 85.5662 148.912C84.852 148.298 84.4114 147.426 84.6428 146.513C86.2444 140.194 97.2437 121.562 110.648 108.397C113.007 102.632 114.841 102.894 117.461 95.5576C119.557 89.6884 128.723 85.8549 131.868 86.9903C132.916 87.3688 133.194 90.2886 131.344 90.6586C128.723 91.1826 127.151 93.2118 126.627 95.046C126.331 96.0847 124.269 102.2 131.868 99.0556C133.964 96.4354 135.012 102.449 124.531 108.397C117.981 111.279 98.8575 140.332 100.954 141.673C106.471 143.311 114.395 156.065 132.134 161.062C150.737 166.303 168.031 177.308 161.742 191.981C155.454 206.654 142.615 205.344 130.038 191.981Z" fill="#FEB3CB"/>
<mask id="mask9_10_2" style="mask-type:alpha" maskUnits="userSpaceOnUse" x="84" y="86" width="80" height="117">
<path d="M130.038 191.981C120.326 181.662 96.4075 158.227 85.5662 148.912C84.852 148.298 84.4114 147.426 84.6428 146.513C86.2444 140.194 97.2437 121.562 110.648 108.397C113.007 102.632 114.841 102.894 117.461 95.5576C119.557 89.6884 128.723 85.8549 131.868 86.9903C132.916 87.3688 133.194 90.2886 131.344 90.6586C128.723 91.1826 127.151 93.2118 126.627 95.046C126.331 96.0847 124.269 102.2 131.868 99.0556C133.964 96.4354 135.012 102.449 124.531 108.397C117.981 111.279 98.8575 140.332 100.954 141.673C106.471 143.311 114.395 156.065 132.134 161.062C150.737 166.303 168.031 177.308 161.742 191.981C155.454 206.654 142.615 205.344 130.038 191.981Z" fill="#FEB3CB"/>
</mask>
<g mask="url(#mask9_10_2)">
<path d="M127.418 192.18C117.706 181.861 93.7874 158.426 82.9461 149.111C82.2319 148.498 81.7913 147.625 82.0227 146.713C83.6243 140.393 94.6236 121.761 108.028 108.596C110.386 102.831 112.221 103.093 114.841 95.7569C116.937 89.8876 132.13 85.3309 135.274 86.4664C136.322 86.8448 137.37 92.8176 132.392 91.9688C129.758 91.5196 130.038 93.9227 129.514 95.7569C129.217 96.7956 126.103 100.615 133.702 97.4712C135.798 94.851 136.06 99.9087 125.579 105.856C119.029 108.738 96.2374 140.531 98.3336 141.872C103.851 143.51 111.775 156.265 129.514 161.262C148.117 166.502 165.411 177.507 159.122 192.18C152.834 206.853 139.995 205.543 127.418 192.18Z" fill="#FBC6D7"/>
<path d="M130.558 88.8245C136.584 93.5409 136.386 85.1562 132.392 84.3702C127.937 86.117 114.93 91.8639 113.463 92.4928C111.629 93.2788 85.2282 147.255 83.132 148.827C81.4551 150.085 94.7482 158.26 99.6393 165.596L154.139 206.733C155.449 201.231 151.886 198.82 147.065 196.514C141.038 193.632 137.108 192.06 134.488 187.344C131.868 182.627 119.815 170.837 114.312 165.596C108.81 160.356 90.9926 147.779 90.9926 143.849C90.9926 141.115 99.3772 127.865 108.81 113.716C120.863 102.974 124.513 84.0939 130.558 88.8245Z" fill="#FEF2F7"/>
</g>
</g>
<path d="M232.483 239.748C240.549 258.771 236.445 259.042 213.356 268.832C190.266 278.622 165.349 294.256 157.284 275.233C149.218 256.209 135.757 211.245 158.847 201.456C181.936 191.666 224.417 220.724 232.483 239.748Z" fill="url(#paint19_linear_10_2)"/>
<ellipse cx="195.841" cy="257.402" rx="47.2788" ry="40.9656" transform="rotate(-22.9766 195.841 257.402)" fill="url(#paint20_radial_10_2)" fill-opacity="0.5"/>
<ellipse cx="195.606" cy="258.009" rx="44.0173" ry="37.3158" transform="rotate(-22.9766 195.606 258.009)" fill="#38FF26" fill-opacity="0.2"/>
<ellipse cx="195.413" cy="256.955" rx="41.6611" ry="34.3245" transform="rotate(-22.9766 195.413 256.955)" fill="url(#paint21_radial_10_2)"/>
<mask id="mask10_10_2" style="mask-type:alpha" maskUnits="userSpaceOnUse" x="154" y="221" width="83" height="72">
<ellipse cx="195.413" cy="256.955" rx="41.6611" ry="34.3245" transform="rotate(-22.9766 195.413 256.955)" fill="#68FF92"/>
</mask>
<g mask="url(#mask10_10_2)">
<path d="M209.791 200.403C216.705 216.71 206.355 237.276 185.745 246.015C165.135 254.754 143.156 247.894 136.242 231.587C129.328 215.28 139.678 194.713 160.288 185.975C180.899 177.236 202.877 184.096 209.791 200.403Z" stroke="url(#paint22_radial_10_2)" stroke-width="3.43487"/>
<path d="M252.544 296.302C259.562 312.853 251.584 332.126 234.633 339.313C217.683 346.5 198.283 338.834 191.266 322.283C184.248 305.732 192.226 286.459 209.177 279.272C226.127 272.085 245.527 279.751 252.544 296.302Z" stroke="url(#paint23_linear_10_2)" stroke-width="3.43487"/>
</g>
<defs>
<linearGradient id="paint0_linear_10_2" x1="224.622" y1="6.28847" x2="181.127" y2="95.637" gradientUnits="userSpaceOnUse">
<stop stop-color="#FFFF97" stop-opacity="0.945806"/>
<stop offset="0.456015" stop-color="white"/>
<stop offset="1" stop-color="white" stop-opacity="0.4"/>
</linearGradient>
<linearGradient id="paint1_linear_10_2" x1="220.999" y1="333.531" x2="200.173" y2="472.477" gradientUnits="userSpaceOnUse">
<stop stop-color="#FF78A3"/>
<stop offset="1" stop-color="#FF8EB2"/>
</linearGradient>
<linearGradient id="paint2_linear_10_2" x1="163.581" y1="271.19" x2="141.3" y2="350.582" gradientUnits="userSpaceOnUse">
<stop stop-color="#78AEEC"/>
<stop offset="1" stop-color="#142AE9"/>
</linearGradient>
<linearGradient id="paint3_linear_10_2" x1="163.581" y1="271.19" x2="141.3" y2="350.582" gradientUnits="userSpaceOnUse">
<stop stop-color="#78AEEC"/>
<stop offset="1" stop-color="#142AE9"/>
</linearGradient>
<linearGradient id="paint4_linear_10_2" x1="181.389" y1="309.707" x2="169.598" y2="308.135" gradientUnits="userSpaceOnUse">
<stop stop-color="#C1C5FF"/>
<stop offset="1" stop-color="#C1C5FF" stop-opacity="0"/>
</linearGradient>
<linearGradient id="paint5_linear_10_2" x1="169.861" y1="297.13" x2="165.406" y2="309.183" gradientUnits="userSpaceOnUse">
<stop stop-color="#C1C5FF"/>
<stop offset="1" stop-color="#C7CAFF" stop-opacity="0"/>
</linearGradient>
<linearGradient id="paint6_linear_10_2" x1="129.51" y1="291.365" x2="125.841" y2="274.858" gradientUnits="userSpaceOnUse">
<stop stop-color="#DBF3F8"/>
<stop offset="1" stop-color="#99B5F3"/>
</linearGradient>
<linearGradient id="paint7_linear_10_2" x1="156.048" y1="162.976" x2="159.454" y2="305.776" gradientUnits="userSpaceOnUse">
<stop stop-color="#94BFFF"/>
<stop offset="1" stop-color="#0D25FE"/>
</linearGradient>
<linearGradient id="paint8_linear_10_2" x1="156.048" y1="162.976" x2="159.454" y2="305.776" gradientUnits="userSpaceOnUse">
<stop stop-color="#94BFFF"/>
<stop offset="1" stop-color="#0D25FE"/>
</linearGradient>
<linearGradient id="paint9_linear_10_2" x1="123.218" y1="237.865" x2="135.146" y2="288.409" gradientUnits="userSpaceOnUse">
<stop stop-color="#99B5F3"/>
<stop offset="1" stop-color="#DBF3F8"/>
</linearGradient>
<linearGradient id="paint10_linear_10_2" x1="150.449" y1="291.365" x2="132.632" y2="265.425" gradientUnits="userSpaceOnUse">
<stop stop-color="#C1C5FF"/>
<stop offset="1" stop-color="#C1C5FF" stop-opacity="0"/>
</linearGradient>
<linearGradient id="paint11_linear_10_2" x1="151.519" y1="277.74" x2="139.956" y2="260.454" gradientUnits="userSpaceOnUse">
<stop stop-color="#C1C5FF"/>
<stop offset="1" stop-color="#C1C5FF" stop-opacity="0"/>
</linearGradient>
<linearGradient id="paint12_linear_10_2" x1="175.625" y1="174.767" x2="179.862" y2="198.031" gradientUnits="userSpaceOnUse">
<stop stop-color="#C1C5FF"/>
<stop offset="1" stop-color="#C1C5FF" stop-opacity="0"/>
</linearGradient>
<linearGradient id="paint13_linear_10_2" x1="131.606" y1="211.696" x2="125.317" y2="178.42" gradientUnits="userSpaceOnUse">
<stop stop-color="#99B5F3"/>
<stop offset="1" stop-color="#DBF3F8"/>
</linearGradient>
<linearGradient id="paint14_linear_10_2" x1="157.546" y1="129.618" x2="157.75" y2="172.589" gradientUnits="userSpaceOnUse">
<stop stop-color="#050753"/>
<stop offset="1" stop-color="#008294"/>
</linearGradient>
<linearGradient id="paint15_linear_10_2" x1="162.524" y1="149.793" x2="156.498" y2="152.675" gradientUnits="userSpaceOnUse">
<stop stop-color="#FC719A"/>
<stop offset="1" stop-color="#FC719A" stop-opacity="0"/>
</linearGradient>
<linearGradient id="paint16_linear_10_2" x1="106.976" y1="150.923" x2="181.389" y2="127.341" gradientUnits="userSpaceOnUse">
<stop stop-color="#2B02CD"/>
<stop offset="0.511301" stop-color="#5899FF"/>
<stop offset="0.857583" stop-color="#5EC0DF"/>
<stop offset="1" stop-color="white"/>
</linearGradient>
<linearGradient id="paint17_linear_10_2" x1="145.755" y1="134.416" x2="186.106" y2="129.699" gradientUnits="userSpaceOnUse">
<stop stop-color="#02C3CD"/>
<stop offset="1" stop-color="white"/>
</linearGradient>
<linearGradient id="paint18_linear_10_2" x1="119.029" y1="150.923" x2="121.125" y2="131.272" gradientUnits="userSpaceOnUse">
<stop stop-color="white"/>
<stop offset="1" stop-color="#003BD5" stop-opacity="0"/>
<stop offset="1" stop-color="white"/>
</linearGradient>
<linearGradient id="paint19_linear_10_2" x1="158.594" y1="215.118" x2="202.517" y2="291.361" gradientUnits="userSpaceOnUse">
<stop stop-color="#F5FF7C" stop-opacity="0"/>
<stop offset="0.544444" stop-color="#00FF47"/>
<stop offset="1" stop-color="#00A72F"/>
</linearGradient>
<radialGradient id="paint20_radial_10_2" cx="0" cy="0" r="1" gradientUnits="userSpaceOnUse" gradientTransform="translate(196.408 307.601) rotate(-84.1426) scale(60.4717 69.8234)">
<stop stop-color="#FFEC3E"/>
<stop offset="1" stop-color="#1EB910" stop-opacity="0"/>
</radialGradient>
<radialGradient id="paint21_radial_10_2" cx="0" cy="0" r="1" gradientUnits="userSpaceOnUse" gradientTransform="translate(193.179 227.641) rotate(91.0357) scale(79.9416 97.0284)">
<stop stop-color="#F5FF7C"/>
<stop offset="0.546875" stop-color="#00FF47"/>
<stop offset="1" stop-color="#00A72F"/>
</radialGradient>
<radialGradient id="paint22_radial_10_2" cx="0" cy="0" r="1" gradientUnits="userSpaceOnUse" gradientTransform="translate(182.438 261.495) rotate(-100.46) scale(51.9572 63.0625)">
<stop stop-color="white"/>
<stop offset="1" stop-color="white" stop-opacity="0"/>
</radialGradient>
<linearGradient id="paint23_linear_10_2" x1="201.565" y1="264.115" x2="214.928" y2="289.531" gradientUnits="userSpaceOnUse">
<stop stop-color="white"/>
<stop offset="1" stop-color="white" stop-opacity="0"/>
</linearGradient>
<clipPath id="clip0_10_2">
<rect width="112.417" height="146.93" fill="white" transform="translate(153.582 -14.6731) rotate(26.2336)"/>
</clipPath>
</defs>
</svg>
